<svg xmlns="http://www.w3.org/2000/svg" width="315" height="114" viewBox="0 0 315 114" fill="none"><path d="M162.291 95.9601C162.691 96.2001 162.931 96.6801 162.931 97.3201C162.931 98.2001 162.451 99.2401 161.411 100.12C157.011 103.64 150.051 107.88 150.051 107.88C144.691 111.08 137.091 113.64 127.491 113.64H126.611C106.051 113.24 98.6906 101.64 98.6906 86.3601C98.6906 73.8801 103.571 58.9201 110.211 45.4001C107.251 45.3201 104.291 45.0801 101.331 44.8401H101.011C97.4106 50.7601 95.0106 55.1601 94.6106 55.9601C70.4506 94.9201 53.0106 105.48 31.6506 105.48C30.6906 105.48 29.6506 105.48 28.6906 105.4C19.8906 105 12.6906 101.48 7.65061 95.6401C3.33061 90.6801 0.370605 84.2001 0.370605 77.2401C0.370605 76.6801 0.450605 76.2001 0.450605 75.6401C1.25061 61.3201 11.0106 47.4801 30.3706 41.2401C33.5706 29.1601 42.4506 19.0001 55.0906 12.3601C66.6906 6.2801 82.2906 3.2401 100.211 3.2401C107.411 3.2401 114.931 3.7201 122.771 4.6801C130.691 5.6401 136.371 6.2001 140.531 6.2001C147.891 6.2001 150.771 4.6001 153.971 1.1601C154.291 0.840099 154.611 0.600098 155.011 0.600098C155.091 0.600098 155.251 0.600098 155.331 0.680097C155.651 0.840099 155.891 1.1601 155.891 1.5601C155.891 1.7201 155.891 1.8801 155.811 2.0401C155.731 2.2001 153.971 6.1201 146.931 7.7201C140.451 9.7201 135.651 15.0801 133.171 18.3601C129.651 23.1601 125.651 29.8001 120.291 39.3201C113.171 52.2001 105.571 71.4801 105.571 86.8401C105.571 99.5601 110.771 109.64 125.731 111.32C126.371 111.32 127.011 111.4 127.731 111.4C133.971 111.4 141.251 109.72 145.891 107.24C154.291 102.76 159.091 96.7601 159.091 96.7601C159.571 95.9601 160.371 95.5601 161.091 95.5601C161.491 95.5601 161.971 95.7201 162.291 95.9601ZM89.8106 51.5601C91.5706 49.0801 92.8506 46.5201 94.3706 44.1201C89.8106 43.6401 85.2506 43.0001 80.8506 42.3601C72.6106 41.2401 64.9306 40.3601 58.2906 40.3601C49.5706 40.3601 41.8106 41.7201 35.0906 44.0401C34.9306 44.6001 34.8506 45.2401 34.7706 45.8001C34.5306 47.7201 34.3706 49.4801 34.3706 51.0801C34.3706 66.7601 45.4106 69.9601 49.6506 69.9601C52.8506 69.9601 56.2906 69.1601 59.0906 67.2401C63.5706 64.2801 64.3706 58.6801 64.5306 57.4801C64.6106 56.2801 65.3306 55.4801 66.6106 55.4801C67.5706 55.5601 68.0506 56.3601 68.0506 57.4001C68.0506 57.6401 68.0506 57.8001 67.9706 58.0401C67.0106 64.0401 62.2106 67.4801 62.2106 67.4801C58.6906 70.4401 54.2106 71.9601 49.5706 71.9601C44.3706 71.9601 37.8906 69.8001 34.4506 65.8001C30.9306 61.7201 29.0906 56.2801 29.0906 50.1201C29.0906 48.9201 29.1706 47.6401 29.3306 46.3601C15.3306 53.0801 7.17061 64.5201 6.53061 75.8001C6.53061 76.2801 6.45061 76.7601 6.45061 77.2401C6.45061 89.2401 15.0106 101.56 29.4906 102.84C30.4506 102.92 31.4106 103 32.3706 103C59.4906 103 78.4506 67.9601 89.8106 51.5601ZM95.8906 42.2001C107.331 24.0401 121.971 11.8801 133.891 7.9601L122.451 6.6801C115.411 5.8801 108.531 5.4001 101.971 5.4001C85.3306 5.4001 70.3706 8.2001 58.9306 14.2001C47.5706 20.2001 39.4906 29.0801 36.1306 39.6401C41.6506 38.5201 47.7306 37.8001 54.4506 37.8001C55.7306 37.8001 57.0106 37.8001 58.3706 37.8801C65.0906 38.2001 72.8506 39.2401 81.0906 40.3601L82.0506 40.5201C86.5306 41.1601 91.3306 41.7201 95.8906 42.2001ZM102.211 42.9201C105.251 43.1601 108.211 43.3201 111.171 43.4001C122.211 23.7201 130.931 14.5201 138.371 8.9201C138.371 8.9201 138.451 8.8401 138.691 8.6801C125.731 11.3201 113.651 24.4401 104.691 39.0001C103.891 40.3601 103.011 41.6401 102.211 42.9201Z" fill="#C40003"></path><path d="M149.215 36.8401C149.775 36.8401 150.255 37.3201 150.255 37.8801C150.255 38.4401 149.775 38.9201 149.215 38.9201H138.735L128.655 57.2401C125.615 62.8401 123.695 66.8401 123.215 69.6401C123.215 69.8801 123.135 70.1201 123.135 70.4401C123.135 71.9601 123.775 74.1201 126.175 74.5201C126.415 74.6001 126.655 74.6001 126.975 74.6001C128.735 74.6001 131.215 73.7201 133.935 71.0801C137.295 67.8801 140.495 63.0001 143.455 57.6401C143.615 57.3201 143.935 57.1601 144.335 57.1601C144.495 57.1601 144.655 57.1601 144.815 57.2401C145.135 57.4801 145.295 57.8001 145.295 58.2001C145.295 58.3601 145.295 58.5201 145.215 58.6801C140.255 67.5601 134.335 77.0801 126.575 77.0801C121.295 77.0801 117.935 74.3601 117.935 69.2401C117.935 66.2801 119.055 62.3601 121.615 57.8001L132.175 38.9201H125.615C125.055 38.9201 124.575 38.4401 124.575 37.8801C124.575 37.3201 125.055 36.8401 125.615 36.8401H133.295L144.655 16.4401H151.295L139.935 36.8401H149.215Z" fill="#C40003"></path><path d="M171.864 56.9201C172.184 57.0801 172.344 57.4001 172.344 57.8001C172.344 57.9601 172.344 58.1201 172.264 58.2801C167.064 67.4801 160.104 77.0001 148.264 77.0001C138.744 77.0001 136.824 71.1601 136.824 66.6801C136.824 65.8801 136.904 65.1601 136.984 64.5201C137.624 60.0401 139.304 56.1201 142.264 51.1601C145.864 45.2401 153.304 36.2001 161.304 36.2001C162.264 36.2001 165.624 36.2001 167.464 38.9201C168.184 39.8801 168.584 41.2401 168.584 42.6801C168.584 44.0401 168.264 45.5601 167.464 47.0801C162.584 56.6001 152.504 58.2801 145.384 58.6801C144.984 59.4801 144.664 60.3601 144.344 61.1601C143.464 63.5601 143.064 65.6401 143.064 67.3201C143.064 72.2801 146.264 74.4401 150.344 74.4401H150.984C157.784 74.1201 163.944 68.8401 170.504 57.3201C170.664 57.0001 170.984 56.8401 171.384 56.8401C171.544 56.8401 171.704 56.8401 171.864 56.9201ZM162.024 38.7601C157.944 38.7601 150.424 49.7201 146.424 56.6001C151.624 56.0401 160.264 53.8801 163.864 46.2801C164.584 44.6801 164.904 43.2401 164.904 42.1201C164.904 39.9601 163.784 38.7601 162.024 38.7601Z" fill="#C40003"></path><path d="M208.512 57.2401C208.832 57.4001 208.992 57.7201 208.992 58.1201C208.992 58.2801 208.992 58.4401 208.912 58.6001C202.112 70.6801 195.072 77.0001 187.072 77.0001C183.472 77.0001 181.152 75.8001 180.272 74.1201C179.792 73.2401 179.552 72.2001 179.552 71.0801C179.552 67.0001 182.672 61.2401 188.512 53.5601L189.392 52.4401C192.112 48.9201 196.512 43.3201 196.512 40.2001C196.512 39.2401 196.032 38.6801 194.992 38.6801C194.752 38.6801 194.512 38.7601 194.272 38.7601C192.192 39.0801 190.112 40.2001 187.872 41.8001C178.672 48.5201 172.112 59.0001 169.632 63.4801C169.632 63.5601 169.552 63.6401 162.352 76.3601H155.792L177.872 36.8401H184.512L178.272 48.0401C183.472 41.9601 190.032 36.2001 195.952 36.2001C197.632 36.2001 199.392 36.5201 200.272 37.9601C200.752 38.6801 201.072 39.5601 201.072 40.8401C201.072 43.6401 199.472 48.0401 194.832 54.6801C191.712 59.1601 187.872 64.3601 186.032 68.2001C185.392 69.5601 185.072 70.6801 185.072 71.5601C185.072 73.5601 186.512 74.4401 188.512 74.4401C190.672 74.4401 193.472 73.4001 196.112 71.4001C199.792 68.5201 203.552 64.0401 207.072 57.6401C207.312 57.2401 207.632 57.0801 207.952 57.0801C208.112 57.0801 208.352 57.1601 208.512 57.2401Z" fill="#C40003"></path><path d="M233.473 56.9201C233.793 57.1601 233.953 57.4801 233.953 57.8801C233.953 58.0401 233.953 58.2001 233.873 58.3601C226.993 70.5201 220.433 75.8801 212.913 76.8401C211.713 77.0001 210.673 77.0001 209.633 77.0001L207.153 80.1201C207.313 80.1201 207.553 80.0401 207.793 80.0401C207.793 80.0401 207.953 80.0401 208.273 80.0401C209.233 80.0401 211.233 80.2801 212.353 82.0401C212.833 82.7601 212.993 83.5601 212.993 84.3601C212.993 86.8401 211.073 89.3201 208.833 90.6001C207.553 91.3201 206.033 91.8001 204.353 91.8001C202.833 91.8001 200.993 91.6401 199.393 90.6801C198.993 90.5201 198.753 90.1201 198.753 89.7201C198.753 89.5601 198.753 89.4801 198.833 89.3201C198.993 88.9201 199.313 88.7601 199.713 88.7601C199.953 88.7601 200.113 88.8401 200.353 88.9201C201.073 89.2401 201.873 89.4001 202.593 89.4001C204.753 89.4001 206.433 88.2001 207.313 87.4801C208.113 86.7601 208.673 85.7201 208.673 84.6801C208.673 83.5601 207.953 82.6001 206.353 82.6001C206.193 82.6001 205.953 82.6801 205.713 82.6801C205.473 82.6801 205.233 82.7601 205.073 82.7601C204.913 82.7601 204.833 82.8401 204.753 82.8401C204.593 82.8401 204.353 82.7601 204.193 82.6001C203.873 82.4401 203.713 82.0401 203.713 81.7201C203.713 81.4801 203.713 81.2401 203.873 81.0801L207.073 76.8401C200.993 75.8801 198.433 71.8001 198.433 66.6001C198.433 63.4801 199.313 60.0401 200.993 56.6001C209.633 38.6801 219.473 36.2001 223.313 36.2001C226.593 36.2001 229.073 37.7201 229.953 40.6801C230.113 41.2401 230.193 41.8801 230.193 42.6001C230.193 45.8801 228.353 50.0401 225.153 53.6401C225.153 53.6401 222.193 57.3201 219.873 58.4401C219.633 58.6001 219.153 58.8401 218.673 58.8401C218.273 58.8401 217.873 58.6801 217.553 58.3601C217.233 58.0401 216.993 57.6401 216.993 57.1601C216.993 56.6001 217.633 55.3201 218.353 55.3201C219.153 55.0001 222.673 53.4001 225.553 49.8001C226.913 48.1201 228.033 45.1601 228.033 42.7601C228.033 40.4401 226.993 38.5201 223.953 38.5201C219.473 38.5201 211.873 49.9601 208.593 55.6401C206.273 59.6401 204.673 63.9601 204.673 67.4801C204.673 71.4801 206.753 74.4401 212.033 74.4401H212.753C218.833 74.2001 225.633 68.9201 232.113 57.3201C232.273 57.0001 232.593 56.8401 232.993 56.8401C233.153 56.8401 233.313 56.8401 233.473 56.9201Z" fill="#C40003"></path><path d="M246.889 29.4001C246.729 29.4001 246.569 29.3201 246.409 29.2401C246.089 29.0001 245.929 28.6801 245.929 28.2801C245.929 28.1201 245.929 27.8801 246.009 27.7201C247.929 24.2801 250.729 22.5201 253.849 22.5201C255.369 22.5201 256.889 22.9201 258.489 23.7201C260.409 24.6801 261.929 25.1601 263.129 25.1601C264.969 25.1601 266.089 24.1201 266.809 22.6801C267.049 22.3601 267.369 22.1201 267.769 22.1201C267.929 22.1201 268.089 22.2001 268.249 22.2801C268.569 22.5201 268.729 22.9201 268.729 23.3201C268.729 23.4801 268.729 23.6401 268.649 23.8001C268.169 25.4001 266.249 29.9601 261.609 29.9601C260.409 29.9601 259.049 29.6401 257.449 28.9201C257.369 28.9201 257.289 28.8401 257.209 28.8401C254.889 27.8001 252.969 26.8401 251.289 26.8401C250.009 26.8401 248.889 27.4001 247.849 28.8401C247.609 29.1601 247.289 29.4001 246.889 29.4001ZM272.969 57.3201C273.289 57.4801 273.449 57.8001 273.449 58.2001C273.449 58.3601 273.449 58.5201 273.369 58.6801C268.409 67.5601 262.409 77.0801 254.489 77.0801C249.209 77.0801 245.929 74.3601 245.929 69.4001C245.929 69.0001 245.929 68.5201 246.009 68.0401C241.929 73.5601 237.609 76.9201 233.529 77.0001H233.209C227.449 77.0001 225.449 72.5201 225.449 68.2001C225.449 67.5601 225.449 67.0001 225.529 66.4401C226.169 61.8801 228.089 56.4401 231.209 51.4001C238.329 39.7201 245.049 36.2001 250.009 36.2001C251.369 36.2001 252.569 36.5201 253.609 36.9201C255.849 37.8001 256.809 39.8001 256.809 42.6001C256.809 43.5601 256.729 44.6001 256.489 45.7201L261.449 36.8401H268.089L256.649 57.2401C253.529 62.7601 251.849 66.8401 251.369 69.6401C251.369 69.8801 251.289 70.1201 251.289 70.4401C251.289 71.9601 251.929 73.9601 254.329 74.5201C254.649 74.6001 254.969 74.6001 255.289 74.6001C257.049 74.6001 259.369 73.6401 262.089 71.0801C265.369 67.8801 268.569 63.0001 271.529 57.7201C271.769 57.3201 272.089 57.1601 272.409 57.1601C272.569 57.1601 272.809 57.2401 272.969 57.3201ZM238.969 72.4401C242.009 70.2001 245.209 66.2001 248.169 61.0001C250.169 57.4001 254.649 48.3601 254.649 42.9201C254.649 41.1601 254.169 39.7201 252.969 39.0001C252.569 38.7601 252.009 38.6001 251.529 38.6001C247.689 38.6001 241.929 45.2401 237.609 52.4401C234.729 57.3201 232.489 62.3601 231.849 66.6801C231.689 67.5601 231.609 68.4401 231.609 69.1601C231.609 72.4401 233.049 74.0401 235.049 74.0401C236.169 74.0401 237.529 73.4801 238.969 72.4401Z" fill="#C40003"></path><path d="M312.499 45.7201C312.899 45.8801 313.059 46.2001 313.059 46.6001C313.059 46.7601 313.059 46.9201 312.979 47.0801C309.299 53.9601 302.419 56.6801 296.419 56.6801H295.459C294.579 58.6801 293.539 60.7601 292.259 62.8401C286.979 71.4001 280.019 76.7601 273.939 77.0001H273.219C266.419 77.0001 264.339 71.6401 264.339 67.0801C264.339 66.6001 264.339 66.1201 264.419 65.6401C264.899 60.9201 266.739 55.4801 269.939 50.4401C276.659 40.0401 283.619 36.2801 289.539 36.2801H290.419C291.779 36.3601 298.099 36.8401 298.099 44.9201C298.099 45.5601 298.019 46.2001 297.939 47.1601C297.699 49.4801 297.139 52.0401 296.419 54.6801C301.779 54.6801 307.939 52.2001 311.139 46.1201C311.299 45.8001 311.619 45.6401 312.019 45.6401C312.179 45.6401 312.339 45.6401 312.499 45.7201ZM295.779 47.6401C295.859 46.9201 295.939 46.1201 295.939 45.3201C295.939 44.2801 295.859 43.1601 295.459 42.0401C294.579 39.6401 292.419 39.1601 291.059 39.1601C290.739 39.1601 290.419 39.2401 290.259 39.2401C286.899 39.8001 285.779 42.4401 285.539 44.9201V45.5601C285.539 49.2401 288.099 53.4001 293.299 54.3601L294.099 54.5201C294.979 52.1201 295.539 49.8001 295.779 47.6401ZM290.579 61.8001C291.619 60.0401 292.579 58.2001 293.299 56.4401C293.139 56.4401 293.059 56.3601 292.899 56.3601C286.659 55.1601 283.539 50.1201 283.539 45.5601V44.7601C283.619 43.9601 283.699 43.2401 283.939 42.6001C281.219 44.8401 278.579 47.9601 276.339 51.6401C273.459 56.4401 270.979 61.4801 270.579 65.8801C270.499 66.5201 270.499 67.0801 270.499 67.6401C270.499 70.9201 271.539 73.4801 274.259 73.9601C274.579 74.0401 274.819 74.0401 275.139 74.0401C279.299 74.0401 286.019 69.0801 290.579 61.8001Z" fill="#C40003"></path><path d="M306.143 74.9851C305.428 76.2851 304.193 77.0001 303.088 77.0001C302.698 77.0001 302.308 76.9351 301.983 76.7401C301.138 76.2851 300.748 75.3751 300.748 74.3351C300.748 73.6201 300.943 72.9051 301.333 72.1901C302.048 70.9551 303.283 70.1751 304.388 70.1751C304.778 70.1751 305.233 70.3051 305.558 70.5001C306.338 70.9551 306.793 71.8651 306.793 72.9051C306.793 73.6201 306.533 74.2701 306.143 74.9851ZM313.943 57.8251C313.228 59.0601 311.993 59.8401 310.888 59.8401C310.498 59.8401 310.108 59.7101 309.718 59.5151C308.938 59.0601 308.483 58.1501 308.483 57.1101C308.483 56.3951 308.743 55.7451 309.133 55.0301C309.848 53.7301 311.083 52.9501 312.188 52.9501C312.578 52.9501 312.968 53.0801 313.358 53.2751C314.138 53.7301 314.528 54.6401 314.528 55.6801C314.528 56.3951 314.333 57.1101 313.943 57.8251Z" fill="#C40003"></path></svg>