<svg xmlns="http://www.w3.org/2000/svg" width="121" height="27" viewBox="0 0 121 27" fill="none"><path d="M31.8157 3.65122C31.8157 3.71115 31.809 3.74777 31.7957 3.76109C31.7757 3.8876 31.7224 3.99081 31.6359 4.07071C31.5493 4.15061 31.4395 4.19056 31.3063 4.19056C31.2064 4.17059 31.1232 4.11066 31.0566 4.01078C30.99 3.90424 30.9567 3.77773 30.9567 3.63125C30.9833 3.53137 30.9967 3.41484 30.9967 3.28167C30.9967 2.6824 30.717 2.26958 30.1577 2.04318C29.8048 1.91667 29.4153 1.85342 28.9891 1.85342C28.7627 1.85342 28.5363 1.87006 28.3099 1.90336C28.0836 1.92999 27.9138 1.95995 27.8006 1.99325L27.6208 2.04318C27.2213 2.1697 26.7718 2.37278 26.2724 2.65244C27.2712 3.59129 27.7906 4.69661 27.8305 5.96839V6.24805C27.8305 7.04707 27.6874 7.8128 27.4011 8.54524C27.1214 9.27768 26.7652 9.91024 26.3324 10.4429C25.9062 10.9756 25.4035 11.4717 24.8242 11.9311C24.2449 12.3839 23.6889 12.7534 23.1562 13.0398C22.6302 13.3194 22.0942 13.5591 21.5482 13.7589C22.0742 13.9054 22.5337 14.1684 22.9265 14.5479C23.3194 14.9208 23.589 15.3536 23.7355 15.8463C23.8754 16.3457 23.9453 16.8085 23.9453 17.2346C23.9453 18.2401 23.6423 19.2788 23.0364 20.3508C22.4371 21.4162 21.4916 22.4316 20.1998 23.3971C18.948 24.3293 17.4166 25.0484 15.6055 25.5545C13.7943 26.0605 11.8667 26.3135 9.82252 26.3135C8.64396 26.3135 7.41879 26.2203 6.14701 26.0339C5.59436 25.9473 5.11494 25.8208 4.70877 25.6543C4.30926 25.4879 4.01295 25.3081 3.81986 25.115C3.63342 24.9219 3.50025 24.7621 3.42034 24.6356C3.3471 24.5157 3.30049 24.4025 3.28051 24.296C3.25388 24.2028 3.24056 24.0863 3.24056 23.9464V23.8665C3.24056 23.8133 3.28051 23.7533 3.36042 23.6867C3.44032 23.6268 3.49026 23.5969 3.51023 23.5969C3.57682 23.5969 3.63342 23.6235 3.68003 23.6768C3.72664 23.73 3.74994 23.7933 3.74994 23.8665C3.85648 24.306 4.09951 24.6456 4.47905 24.8853C4.86525 25.1317 5.33134 25.2881 5.87734 25.3547C6.60978 25.3547 7.23901 25.1716 7.76504 24.8054C8.47084 24.3127 9.2965 23.4504 10.242 22.2185C11.1875 20.9867 12.3661 19.2022 13.7777 16.8651C14.1306 16.2858 14.7465 15.2337 15.6254 13.7089C16.511 12.1841 17.0004 11.3352 17.0936 11.162C17.2335 10.909 17.4133 10.5994 17.633 10.2332C17.8594 9.8603 18.2089 9.3143 18.6817 8.59518C19.1545 7.87606 19.7238 7.12365 20.3896 6.33794C21.0621 5.55223 21.748 4.84976 22.4471 4.23051C23.1995 3.56466 23.9985 2.99868 24.8442 2.53259C23.7988 1.60705 22.2007 1.07437 20.05 0.934539C19.8436 0.921222 19.5506 0.914563 19.1711 0.914563C17.8927 0.914563 16.6242 1.09101 15.3658 1.44392C14.1073 1.79682 12.9887 2.24294 12.0099 2.78228C11.0377 3.32162 10.1022 3.95085 9.20328 4.66998C8.31104 5.38244 7.56528 6.06494 6.96601 6.71748C6.36675 7.36335 5.83406 8.01256 5.36797 8.6651C4.87523 9.36424 4.41912 10.0734 3.99964 10.7925C3.58015 11.5116 3.28384 12.0576 3.11072 12.4305L2.85104 12.9798C2.59802 13.6124 2.42156 14.0752 2.32169 14.3681C2.24178 14.5679 2.17853 14.761 2.13192 14.9474C1.89221 15.7531 1.77236 16.5421 1.77236 17.3145C1.77236 18.0869 1.88555 18.7028 2.11194 19.1623C2.41158 19.8215 2.85437 20.1744 3.44032 20.221H3.63009C4.15611 20.221 4.74872 20.0778 5.40792 19.7915C6.06711 19.5052 6.67304 19.1157 7.2257 18.6229C7.95148 17.9904 8.59735 17.2313 9.16333 16.3457C9.73596 15.4535 10.2087 14.5379 10.5816 13.5991C10.7414 13.1862 10.8746 12.7434 10.9811 12.2707C11.0943 11.7913 11.1675 11.4151 11.2008 11.1421L11.2408 10.7326V10.6127C11.2608 10.4329 11.3207 10.2864 11.4206 10.1733C11.5271 10.0534 11.657 9.99347 11.8101 9.99347C11.9433 10.0134 12.0498 10.08 12.1297 10.1932C12.2163 10.3064 12.2595 10.4463 12.2595 10.6127V10.7126C12.2595 10.7525 12.2462 10.8125 12.2196 10.8924C12.0997 11.4051 11.9133 11.9744 11.6603 12.6003C11.4139 13.2262 11.1975 13.7223 11.0111 14.0885L10.7314 14.6378C9.8658 16.4622 8.81376 17.9205 7.57527 19.0125C6.77625 19.7116 6.03382 20.1844 5.34799 20.4307C4.66216 20.6771 3.95969 20.8003 3.24056 20.8003C2.74783 20.8003 2.26176 20.6704 1.78234 20.4107C1.30293 20.1511 0.956687 19.8215 0.743614 19.422C0.437321 18.8027 0.274187 18.047 0.254211 17.1547V16.8851C0.254211 16.6121 0.267528 16.3158 0.294163 15.9961C0.327455 15.6699 0.414016 15.1938 0.553845 14.5679C0.700333 13.942 0.890101 13.3094 1.12315 12.6702C1.36286 12.031 1.71909 11.2852 2.19184 10.4329C2.6646 9.57399 3.21726 8.73168 3.84982 7.90602C3.9497 7.75954 4.08953 7.56977 4.26931 7.33672C4.45575 7.10367 4.792 6.73412 5.27808 6.22807C5.77081 5.71537 6.29683 5.22263 6.85615 4.74988C7.41546 4.27046 8.1246 3.75443 8.98355 3.20177C9.84916 2.64911 10.7414 2.17303 11.6603 1.77351C12.5792 1.374 13.6479 1.04108 14.8664 0.774734C16.0849 0.501734 17.33 0.365234 18.6018 0.365234C19.0879 0.365234 19.5873 0.38521 20.1 0.425161C22.3639 0.591625 24.205 1.16426 25.6232 2.14306C26.2824 1.83011 26.8784 1.61371 27.411 1.49386C27.9437 1.36734 28.3432 1.30409 28.6096 1.30409H28.8293C29.908 1.30409 30.707 1.58375 31.2264 2.14306C31.5993 2.51594 31.7957 3.01866 31.8157 3.65122ZM26.3723 6.16815V5.98837C26.3324 4.88305 26.0261 3.94753 25.4534 3.18179C24.2882 4.02743 23.2228 5.05617 22.2573 6.26802C21.2918 7.47988 20.3197 8.91479 19.3409 10.5728C18.8348 11.3984 18.3921 12.1475 18.0125 12.82C16.7474 15.0773 15.6221 16.9849 14.6366 18.543C13.6512 20.1011 12.7656 21.3696 11.9799 22.3484C11.1942 23.3272 10.4984 24.0696 9.89244 24.5757C9.28651 25.0884 8.68391 25.4579 8.08465 25.6843C8.65728 25.7109 9.1034 25.7243 9.42301 25.7243C12.5459 25.7243 15.4956 24.8054 18.2722 22.9676C19.6505 22.0487 20.7359 20.9501 21.5282 19.6717C22.3206 18.3932 22.7168 17.2613 22.7168 16.2758C22.7168 16.0694 22.6968 15.8863 22.6568 15.7265C22.4238 14.7011 21.5549 14.175 20.05 14.1484C19.9968 14.1484 19.9468 14.1251 19.9002 14.0785C19.8603 14.0252 19.837 13.9586 19.8303 13.8787C19.8303 13.8188 19.8503 13.7689 19.8902 13.7289C19.9302 13.6823 19.9768 13.6523 20.0301 13.639C21.2619 13.346 22.3672 12.8 23.346 12.001C24.3315 11.1953 25.0806 10.2831 25.5933 9.26436C26.1126 8.23895 26.3723 7.20688 26.3723 6.16815Z" fill="white"></path><path d="M43.7502 21.1432C42.4274 21.1432 41.2274 20.8364 40.1501 20.2227C39.0728 19.5955 38.2205 18.7295 37.5932 17.625C36.9796 16.5067 36.6728 15.2454 36.6728 13.8408C36.6728 12.4362 36.9796 11.1816 37.5932 10.0771C38.2205 8.95884 39.0728 8.09291 40.1501 7.47926C41.2274 6.85198 42.4274 6.53833 43.7502 6.53833C45.0866 6.53833 46.2934 6.85198 47.3707 7.47926C48.448 8.09291 49.2935 8.95884 49.9072 10.0771C50.5208 11.1816 50.8276 12.4362 50.8276 13.8408C50.8276 15.2454 50.5208 16.5067 49.9072 17.625C49.2935 18.7295 48.448 19.5955 47.3707 20.2227C46.2934 20.8364 45.0866 21.1432 43.7502 21.1432ZM43.7502 19.8955C44.8139 19.8955 45.7684 19.65 46.6139 19.1591C47.4594 18.6682 48.1276 17.9659 48.6185 17.0522C49.1094 16.1249 49.3549 15.0544 49.3549 13.8408C49.3549 12.6271 49.1094 11.5634 48.6185 10.6498C48.1276 9.73613 47.4594 9.03385 46.6139 8.54292C45.7684 8.052 44.8139 7.80654 43.7502 7.80654C42.6865 7.80654 41.732 8.052 40.8865 8.54292C40.041 9.03385 39.3728 9.73613 38.8819 10.6498C38.391 11.5634 38.1455 12.6271 38.1455 13.8408C38.1455 15.0544 38.391 16.1249 38.8819 17.0522C39.3728 17.9659 40.041 18.6682 40.8865 19.1591C41.732 19.65 42.6865 19.8955 43.7502 19.8955ZM43.8525 3.98146L41.1115 5.69968V4.53374L43.8525 2.85643L46.5934 4.53374V5.69968L43.8525 3.98146Z" fill="white"></path><path d="M74.4549 21H73.0231L65.107 8.97248V21H63.6751V6.70197H65.107L73.0231 18.7091V6.70197H74.4549V21Z" fill="white"></path><path d="M89.296 6.70197V15.7022C89.296 17.1204 89.6301 18.1704 90.2983 18.8523C90.9801 19.5341 91.9074 19.875 93.0802 19.875C94.2529 19.875 95.1666 19.5409 95.8212 18.8727C96.4894 18.1909 96.8235 17.134 96.8235 15.7022V6.70197H98.2553V15.6817C98.2553 17.4954 97.7712 18.8591 96.803 19.7727C95.8484 20.6864 94.6007 21.1432 93.0597 21.1432C91.5188 21.1432 90.2642 20.6864 89.296 19.7727C88.3414 18.8591 87.8642 17.4954 87.8642 15.6817V6.70197H89.296Z" fill="white"></path><path d="M116.013 21.1432C115.072 21.1432 114.24 20.9796 113.517 20.6523C112.808 20.325 112.249 19.8682 111.84 19.2818C111.431 18.6954 111.213 18.0409 111.186 17.3181H112.699C112.767 18.0136 113.074 18.6272 113.62 19.1591C114.165 19.6773 114.963 19.9364 116.013 19.9364C116.981 19.9364 117.745 19.6909 118.304 19.2C118.877 18.6954 119.163 18.0613 119.163 17.2977C119.163 16.684 119.006 16.1931 118.693 15.8249C118.379 15.4431 117.99 15.1635 117.527 14.9863C117.063 14.7953 116.422 14.5908 115.604 14.3726C114.649 14.1135 113.892 13.8612 113.333 13.6158C112.774 13.3703 112.297 12.9885 111.902 12.4703C111.506 11.9521 111.308 11.2498 111.308 10.3634C111.308 9.62704 111.499 8.97248 111.881 8.39974C112.263 7.81336 112.802 7.35653 113.497 7.02925C114.192 6.70197 114.99 6.53833 115.89 6.53833C117.213 6.53833 118.277 6.86561 119.081 7.52017C119.899 8.1611 120.37 8.99294 120.493 10.0157H118.938C118.843 9.42931 118.522 8.91112 117.977 8.46111C117.431 7.99746 116.695 7.76564 115.768 7.76564C114.908 7.76564 114.192 7.99746 113.62 8.46111C113.047 8.91112 112.761 9.53158 112.761 10.3225C112.761 10.9225 112.917 11.4066 113.231 11.7748C113.545 12.143 113.933 12.4226 114.397 12.6135C114.874 12.8044 115.515 13.0089 116.32 13.2271C117.247 13.4862 117.997 13.7453 118.57 14.0044C119.143 14.2499 119.627 14.6317 120.022 15.1499C120.418 15.6681 120.615 16.3636 120.615 17.2363C120.615 17.9045 120.438 18.5386 120.084 19.1386C119.729 19.7386 119.204 20.2227 118.508 20.5909C117.813 20.9591 116.981 21.1432 116.013 21.1432Z" fill="white"></path></svg>