<svg xmlns="http://www.w3.org/2000/svg" width="252" height="27" viewBox="0 0 252 27" fill="none"><path d="M32.0354 3.65073C32.0354 3.71066 32.0287 3.74728 32.0154 3.7606C31.9954 3.88711 31.9422 3.99032 31.8556 4.07022C31.769 4.15013 31.6592 4.19008 31.526 4.19008C31.4261 4.1701 31.3429 4.11017 31.2763 4.0103C31.2097 3.90376 31.1764 3.77725 31.1764 3.63076C31.2031 3.53088 31.2164 3.41436 31.2164 3.28119C31.2164 2.68192 30.9367 2.26909 30.3774 2.0427C30.0245 1.91619 29.635 1.85293 29.2088 1.85293C28.9824 1.85293 28.7561 1.86958 28.5297 1.90287C28.3033 1.9295 28.1335 1.95947 28.0203 1.99276L27.8405 2.0427C27.4077 2.18253 26.9782 2.37895 26.5521 2.63198C27.7839 3.81054 28.3998 5.41858 28.3998 7.45609C28.3998 8.37496 28.2766 9.3571 28.0303 10.4025C27.7839 11.4412 27.461 12.43 27.0615 13.3689C26.6686 14.3011 26.2891 15.1234 25.9229 15.8359C25.5566 16.5417 25.1871 17.1909 24.8142 17.7835C24.8009 17.8034 24.7776 17.8401 24.7443 17.8933C24.4713 18.3195 24.2283 18.689 24.0152 19.002C23.8088 19.3083 23.4259 19.7977 22.8666 20.4702C22.3073 21.1427 21.7513 21.7287 21.1986 22.228C20.6526 22.7274 19.9335 23.2868 19.0413 23.906C18.149 24.5252 17.2335 25.0346 16.2946 25.4341C15.3558 25.8336 14.2471 26.1732 12.9687 26.4529C11.6902 26.7325 10.3619 26.8724 8.98354 26.8724C8.23779 26.8724 7.56528 26.8224 6.96601 26.7226C6.36674 26.6227 5.87734 26.4962 5.4978 26.343C5.12492 26.1965 4.79866 26.0167 4.519 25.8037C4.23934 25.5973 4.03292 25.4042 3.89975 25.2244C3.77324 25.0446 3.67003 24.8515 3.59013 24.6451C3.51689 24.4387 3.47361 24.2855 3.46029 24.1857C3.44697 24.0924 3.44031 24.0059 3.44031 23.926C3.44031 23.9193 3.44364 23.906 3.4503 23.886C3.45696 23.866 3.46029 23.8527 3.46029 23.8461C3.46695 23.7928 3.5069 23.7362 3.58014 23.6763C3.66005 23.623 3.70999 23.5964 3.72996 23.5964C3.79655 23.5964 3.85314 23.623 3.89975 23.6763C3.94636 23.7295 3.96967 23.7928 3.96967 23.866C3.97633 23.8727 3.97966 23.8927 3.97966 23.926C3.98631 23.9593 3.99297 24.0092 3.99963 24.0758C4.01295 24.1424 4.02959 24.209 4.04957 24.2755C4.16942 24.5419 4.31258 24.7583 4.47905 24.9247C4.63219 25.0779 4.792 25.1878 4.95846 25.2543C5.34466 25.4075 5.67092 25.4841 5.93726 25.4841C6.96934 25.4841 8.0114 24.9447 9.06345 23.866C10.2686 22.6409 11.9133 20.3071 13.9974 16.8646C14.3503 16.2853 14.9662 15.2333 15.8452 13.7085C16.7307 12.1836 17.2202 11.3347 17.3134 11.1616C17.4532 10.9085 17.633 10.5989 17.8527 10.2327C18.0791 9.85982 18.4287 9.31382 18.9014 8.5947C19.3742 7.87557 19.9435 7.12316 20.6093 6.33745C21.2819 5.55175 21.9677 4.84927 22.6668 4.23003C23.4192 3.56417 24.2183 2.9982 25.0639 2.5321C23.9586 1.61988 22.3605 1.0872 20.2698 0.934053C19.8303 0.907419 19.504 0.894102 19.291 0.894102C18.0192 0.894102 16.7574 1.07388 15.5056 1.43344C14.2604 1.78635 13.1518 2.23247 12.1796 2.77181C11.2142 3.31115 10.2853 3.94371 9.39304 4.66949C8.50746 5.38861 7.76503 6.07111 7.16576 6.71699C6.57315 7.36287 6.04713 8.01207 5.58769 8.66461C5.09496 9.36376 4.63885 10.0729 4.21936 10.792C3.79988 11.5111 3.50357 12.0571 3.33045 12.43L3.07077 12.9793C2.81774 13.6119 2.64129 14.0747 2.54141 14.3676C2.46151 14.5674 2.39825 14.7605 2.35164 14.9469C2.11194 15.7526 1.99208 16.5417 1.99208 17.314C1.99208 18.0864 2.10528 18.7024 2.33167 19.1618C2.53142 19.5946 2.87434 19.8942 3.36041 20.0607C3.58014 20.114 3.83317 20.1406 4.11949 20.1406C5.19817 20.1406 6.30681 19.6345 7.44542 18.6224C8.1712 17.9899 8.81708 17.2308 9.38306 16.3452C9.95569 15.453 10.4284 14.5374 10.8013 13.5986C10.9611 13.1858 11.0943 12.743 11.2008 12.2702C11.314 11.7908 11.3873 11.4146 11.4206 11.1416L11.4605 10.7321V10.6122C11.5071 10.1994 11.6969 9.99299 12.0298 9.99299C12.3295 10.013 12.4793 10.2127 12.4793 10.5923V10.7121C12.4793 10.7521 12.466 10.812 12.4393 10.8919C12.3195 11.4046 12.133 11.9739 11.88 12.5998C11.6336 13.2257 11.4172 13.7218 11.2308 14.088L10.9511 14.6373C10.0855 16.4618 9.03348 17.92 7.795 19.012C6.43665 20.2038 5.0883 20.7998 3.74994 20.7998C3.60345 20.7998 3.46029 20.7898 3.32046 20.7698C2.18851 20.7099 1.4028 20.2604 0.96334 19.4215C0.657048 18.8022 0.493914 18.0465 0.473938 17.1542V16.8846C0.473938 16.6116 0.487255 16.3153 0.513889 15.9957C0.547182 15.6694 0.633743 15.1933 0.773572 14.5674C0.92006 13.9415 1.10983 13.3089 1.34288 12.6697C1.58258 12.0305 1.93882 11.2847 2.41157 10.4325C2.88433 9.5735 3.43699 8.7312 4.06955 7.90554C4.17608 7.75239 4.31924 7.56262 4.49902 7.33623C4.6788 7.10318 5.01506 6.72698 5.50779 6.20761C6.00718 5.68159 6.53653 5.17887 7.09585 4.69945C7.65517 4.21338 8.3643 3.69069 9.22325 3.13137C10.0889 2.57205 10.9811 2.08931 11.9 1.68314C12.8255 1.27697 13.8942 0.937383 15.1061 0.664383C16.3246 0.391383 17.5631 0.254883 18.8215 0.254883C19.0879 0.254883 19.6339 0.284846 20.4595 0.344773C22.7767 0.564505 24.5978 1.15046 25.9229 2.10263C26.5621 1.80965 27.1414 1.60324 27.6607 1.48338C28.1801 1.36353 28.5696 1.3036 28.8293 1.3036H29.049C30.1277 1.3036 30.9267 1.58326 31.4461 2.14258C31.819 2.51545 32.0154 3.01817 32.0354 3.65073ZM23.1163 17.334C23.7622 16.3153 24.3514 15.2665 24.8841 14.1879C25.4235 13.1025 25.8962 11.8907 26.3024 10.5523C26.7152 9.20728 26.9216 7.9921 26.9216 6.90676C26.9216 5.36864 26.5188 4.12016 25.7131 3.16133C24.5345 4.00031 23.4659 5.02239 22.507 6.22759C21.5549 7.42612 20.5727 8.87435 19.5606 10.5723C19.0546 11.3979 18.6118 12.147 18.2322 12.8195C16.561 15.7892 15.1127 18.1797 13.8876 19.9908C12.669 21.8019 11.637 23.1269 10.7913 23.9659C9.9457 24.8049 9.12337 25.3775 8.32435 25.6838C7.85159 25.8902 7.42878 26.0001 7.0559 26.0134C7.44209 26.0933 7.9548 26.1333 8.59402 26.1333C9.62609 26.12 10.6515 25.9934 11.6703 25.7537C12.689 25.514 13.6179 25.2011 14.4569 24.8149C15.3025 24.4353 16.1248 23.9859 16.9238 23.4665C17.7295 22.9472 18.4387 22.4211 19.0512 21.8885C19.6705 21.3558 20.2531 20.7998 20.7991 20.2205C21.3518 19.6412 21.8079 19.1218 22.1674 18.6624C22.5337 18.1963 22.8499 17.7535 23.1163 17.334Z" fill="white"></path><path d="M40.9365 7.86742V13.2062H46.3571V14.3926H40.9365V19.8132H46.9707V20.9995H39.5047V6.68103H46.9707V7.86742H40.9365Z" fill="white"></path><path d="M69.163 10.8129C69.163 12.0402 68.7607 13.0289 67.9562 13.7789C67.1516 14.5289 65.9447 14.9039 64.3356 14.9039H61.4515V20.9995H60.0196V6.70149H64.3356C65.9311 6.70149 67.1311 7.0765 67.9357 7.82651C68.7539 8.57653 69.163 9.57201 69.163 10.8129ZM64.3356 13.6766C66.572 13.6766 67.6902 12.7221 67.6902 10.8129C67.6902 9.85838 67.4243 9.13563 66.8925 8.64471C66.3607 8.15379 65.5084 7.90833 64.3356 7.90833H61.4515V13.6766H64.3356Z" fill="white"></path><path d="M88.2159 21.1427C86.8931 21.1427 85.6931 20.8359 84.6158 20.2223C83.5385 19.595 82.6862 18.729 82.0589 17.6245C81.4453 16.5063 81.1385 15.2449 81.1385 13.8403C81.1385 12.4357 81.4453 11.1811 82.0589 10.0766C82.6862 8.95836 83.5385 8.09243 84.6158 7.47878C85.6931 6.85149 86.8931 6.53785 88.2159 6.53785C89.5523 6.53785 90.7591 6.85149 91.8364 7.47878C92.9137 8.09243 93.7592 8.95836 94.3728 10.0766C94.9865 11.1811 95.2933 12.4357 95.2933 13.8403C95.2933 15.2449 94.9865 16.5063 94.3728 17.6245C93.7592 18.729 92.9137 19.595 91.8364 20.2223C90.7591 20.8359 89.5523 21.1427 88.2159 21.1427ZM88.2159 19.895C89.2795 19.895 90.2341 19.6495 91.0796 19.1586C91.9251 18.6677 92.5933 17.9654 93.0842 17.0517C93.5751 16.1244 93.8206 15.054 93.8206 13.8403C93.8206 12.6266 93.5751 11.563 93.0842 10.6493C92.5933 9.73565 91.9251 9.03336 91.0796 8.54244C90.2341 8.05152 89.2795 7.80606 88.2159 7.80606C87.1522 7.80606 86.1977 8.05152 85.3522 8.54244C84.5067 9.03336 83.8385 9.73565 83.3476 10.6493C82.8567 11.563 82.6112 12.6266 82.6112 13.8403C82.6112 15.054 82.8567 16.1244 83.3476 17.0517C83.8385 17.9654 84.5067 18.6677 85.3522 19.1586C86.1977 19.6495 87.1522 19.895 88.2159 19.895Z" fill="white"></path><path d="M109.573 6.70149V20.9995H108.141V6.70149H109.573Z" fill="white"></path><path d="M137.013 6.88558V20.9995H135.582V9.72883L130.55 20.9995H129.506L124.474 9.76974V20.9995H123.043V6.88558H124.556L130.018 19.1177L135.479 6.88558H137.013Z" fill="white"></path><path d="M151.921 7.86742V13.2062H157.342V14.3926H151.921V19.8132H157.955V20.9995H150.489V6.68103H157.955V7.86742H151.921Z" fill="white"></path><path d="M181.784 20.9995H180.352L172.436 8.972V20.9995H171.004V6.70149H172.436L180.352 18.7086V6.70149H181.784V20.9995Z" fill="white"></path><path d="M203.621 6.70149V7.88788H199.652V20.9995H198.22V7.88788H194.232V6.70149H203.621Z" fill="white"></path><path d="M222.532 21.1427C221.209 21.1427 220.009 20.8359 218.932 20.2223C217.854 19.595 217.002 18.729 216.375 17.6245C215.761 16.5063 215.454 15.2449 215.454 13.8403C215.454 12.4357 215.761 11.1811 216.375 10.0766C217.002 8.95836 217.854 8.09243 218.932 7.47878C220.009 6.85149 221.209 6.53785 222.532 6.53785C223.868 6.53785 225.075 6.85149 226.152 7.47878C227.23 8.09243 228.075 8.95836 228.689 10.0766C229.302 11.1811 229.609 12.4357 229.609 13.8403C229.609 15.2449 229.302 16.5063 228.689 17.6245C228.075 18.729 227.23 19.595 226.152 20.2223C225.075 20.8359 223.868 21.1427 222.532 21.1427ZM222.532 19.895C223.595 19.895 224.55 19.6495 225.396 19.1586C226.241 18.6677 226.909 17.9654 227.4 17.0517C227.891 16.1244 228.137 15.054 228.137 13.8403C228.137 12.6266 227.891 11.563 227.4 10.6493C226.909 9.73565 226.241 9.03336 225.396 8.54244C224.55 8.05152 223.595 7.80606 222.532 7.80606C221.468 7.80606 220.514 8.05152 219.668 8.54244C218.823 9.03336 218.154 9.73565 217.664 10.6493C217.173 11.563 216.927 12.6266 216.927 13.8403C216.927 15.054 217.173 16.1244 217.664 17.0517C218.154 17.9654 218.823 18.6677 219.668 19.1586C220.514 19.6495 221.468 19.895 222.532 19.895Z" fill="white"></path><path d="M246.793 21.1427C245.852 21.1427 245.02 20.9791 244.298 20.6518C243.589 20.3245 243.03 19.8677 242.62 19.2813C242.211 18.6949 241.993 18.0404 241.966 17.3176H243.48C243.548 18.0131 243.855 18.6268 244.4 19.1586C244.945 19.6768 245.743 19.9359 246.793 19.9359C247.761 19.9359 248.525 19.6904 249.084 19.1995C249.657 18.6949 249.943 18.0608 249.943 17.2972C249.943 16.6835 249.786 16.1926 249.473 15.8244C249.159 15.4426 248.771 15.163 248.307 14.9858C247.843 14.7949 247.202 14.5903 246.384 14.3721C245.43 14.113 244.673 13.8607 244.114 13.6153C243.555 13.3698 243.077 12.988 242.682 12.4698C242.286 11.9516 242.089 11.2493 242.089 10.3629C242.089 9.62656 242.28 8.97199 242.661 8.39925C243.043 7.81288 243.582 7.35605 244.277 7.02877C244.973 6.70149 245.77 6.53785 246.671 6.53785C247.993 6.53785 249.057 6.86513 249.861 7.51969C250.68 8.16061 251.15 8.99245 251.273 10.0152H249.718C249.623 9.42882 249.302 8.91063 248.757 8.46062C248.211 7.99697 247.475 7.76515 246.548 7.76515C245.689 7.76515 244.973 7.99697 244.4 8.46062C243.827 8.91063 243.541 9.5311 243.541 10.322C243.541 10.922 243.698 11.4061 244.011 11.7743C244.325 12.1425 244.714 12.4221 245.177 12.613C245.655 12.8039 246.296 13.0085 247.1 13.2266C248.027 13.4857 248.777 13.7448 249.35 14.0039C249.923 14.2494 250.407 14.6312 250.802 15.1494C251.198 15.6676 251.396 16.3631 251.396 17.2358C251.396 17.904 251.218 18.5381 250.864 19.1381C250.509 19.7382 249.984 20.2223 249.289 20.5904C248.593 20.9586 247.761 21.1427 246.793 21.1427Z" fill="white"></path></svg>