<svg xmlns="http://www.w3.org/2000/svg" width="97" height="28" viewBox="0 0 97 28" fill="none"><path d="M44.2658 0.685371C44.3191 0.765274 44.3457 0.8252 44.3457 0.865152C44.3457 0.938395 44.3191 1.00165 44.2658 1.05492C44.2392 1.06824 44.2192 1.08821 44.2059 1.11485C44.0794 1.25468 43.9662 1.37453 43.8663 1.47441C43.7731 1.56763 43.5567 1.74741 43.2171 2.01375C42.8842 2.28009 42.5446 2.51314 42.1983 2.71289C41.8521 2.91265 41.376 3.14237 40.7701 3.40205C40.1708 3.66174 39.5416 3.87481 38.8824 4.04127C38.2232 4.20774 37.4275 4.35089 36.4953 4.47075C35.5698 4.5906 34.5943 4.65053 33.5689 4.65053C32.4569 4.65053 31.265 4.56064 29.9932 4.38086C28.7281 4.19442 27.6161 3.99133 26.6573 3.7716C25.7051 3.54521 24.6265 3.33214 23.4213 3.13238C22.2161 2.93263 21.1274 2.81943 20.1553 2.7928H19.7458C18.4607 2.7928 17.1756 2.93928 15.8905 3.23226C14.612 3.52524 13.4501 3.9081 12.4047 4.38086C11.366 4.84695 10.3805 5.3863 9.44833 5.99888C8.52279 6.60481 7.73043 7.22072 7.07123 7.84662C6.41204 8.46587 5.86937 9.07845 5.44322 9.68438C4.95049 10.3835 4.49438 11.0927 4.07489 11.8118C3.65541 12.5242 3.3591 13.0636 3.18598 13.4298L2.9263 13.9791L2.39694 15.3674C2.29041 15.6671 2.22715 15.8668 2.20717 15.9667C1.95415 16.819 1.82764 17.6147 1.82764 18.3538C1.82764 19.0729 1.94749 19.6755 2.1872 20.1616C2.38695 20.5944 2.72987 20.894 3.21594 21.0605C3.43567 21.1138 3.6887 21.1404 3.97501 21.1404C5.04038 21.1404 6.14237 20.6343 7.28098 19.6222C8.00676 18.983 8.65596 18.2239 9.2286 17.345C9.80123 16.4594 10.2707 15.5439 10.6369 14.5984C10.7967 14.1855 10.9299 13.7428 11.0364 13.27C11.1496 12.7906 11.2228 12.4144 11.2561 12.1414L11.2961 11.7319V11.632C11.3427 11.2192 11.5325 11.0128 11.8654 11.0128C12.165 11.0327 12.3148 11.2325 12.3148 11.612V11.7319C12.3148 11.7718 12.3015 11.8318 12.2749 11.9117C12.155 12.4177 11.9686 12.9837 11.7156 13.6096C11.4692 14.2355 11.2528 14.7349 11.0664 15.1078L10.7867 15.6571C9.91443 17.4749 8.86238 18.9264 7.63055 20.0118C6.29218 21.2036 4.95049 21.7996 3.60547 21.7996C3.46564 21.7996 3.31582 21.7896 3.15602 21.7696C2.03072 21.6897 1.25167 21.2403 0.81887 20.4213C0.512577 19.802 0.349443 19.0463 0.329468 18.154V17.8844C0.329468 17.6114 0.342785 17.3151 0.369419 16.9954C0.402712 16.6692 0.489273 16.1964 0.629102 15.5772C0.77559 14.9513 0.965358 14.322 1.19841 13.6895C1.43811 13.0503 1.79102 12.3045 2.25711 11.4522C2.72321 10.5933 3.27254 9.75096 3.9051 8.92531C3.99832 8.80545 4.13149 8.64565 4.30461 8.44589C4.48439 8.23948 4.79734 7.92653 5.24347 7.50704C5.68959 7.08089 6.169 6.66473 6.68171 6.25856C7.20107 5.85239 7.85361 5.41293 8.63932 4.94017C9.42502 4.46076 10.2374 4.04127 11.0763 3.68171C11.922 3.31549 12.8975 2.99921 14.0028 2.73287C15.1081 2.45987 16.2367 2.29008 17.3886 2.22349C18.3275 2.12361 19.2264 2.07368 20.0853 2.07368C21.71 2.07368 23.7442 2.26011 26.1879 2.63299C26.2678 2.64631 26.5175 2.68293 26.937 2.74286C27.3565 2.80278 27.6261 2.84274 27.746 2.86271C27.8658 2.87603 28.1155 2.90932 28.4951 2.96259C28.8746 3.01586 29.1509 3.05248 29.3241 3.07246C29.5038 3.08577 29.7668 3.11241 30.1131 3.15236C30.4593 3.19231 30.7457 3.22227 30.972 3.24225C31.2051 3.25557 31.4781 3.27554 31.791 3.30217C32.104 3.32215 32.4036 3.3388 32.6899 3.35211C32.9829 3.35877 33.2759 3.3621 33.5689 3.3621H33.7287C34.6942 3.3621 35.623 3.31216 36.5153 3.21228C37.4075 3.11241 38.1832 2.98589 38.8424 2.83275C39.5016 2.6796 40.1175 2.50648 40.6902 2.31338C41.2628 2.12029 41.7389 1.93052 42.1184 1.74408C42.498 1.55764 42.8276 1.38119 43.1072 1.21472C43.3869 1.04826 43.5866 0.91842 43.7065 0.8252C43.8263 0.731981 43.8896 0.678713 43.8963 0.665396C43.9362 0.625444 43.9928 0.605469 44.066 0.605469C44.1659 0.605469 44.2325 0.632103 44.2658 0.685371ZM25.0193 4.96015H25.239C25.3656 5.01342 25.4288 5.12328 25.4288 5.28975C25.4222 5.33636 25.3789 5.37964 25.299 5.41959C25.2257 5.45288 25.1525 5.46953 25.0792 5.46953C24.5066 5.46953 23.8441 5.84573 23.0917 6.59815C22.7721 6.9111 22.4524 7.29064 22.1328 7.73676C21.8199 8.18288 21.5702 8.56907 21.3838 8.89534C21.1973 9.21495 20.941 9.67772 20.6147 10.2836C20.2884 10.8896 20.052 11.319 19.9056 11.5721C19.3795 12.4577 18.9434 13.2134 18.5972 13.8393L18.1477 14.6184C19.1531 14.7782 19.8623 14.8581 20.2751 14.8581C20.7945 14.8581 21.2439 14.7815 21.6235 14.6283C22.003 14.4685 22.3859 14.2055 22.7721 13.8393C22.812 13.7994 22.8653 13.7794 22.9319 13.7794C23.0184 13.7794 23.0883 13.806 23.1416 13.8593C23.1816 13.8992 23.2015 13.9525 23.2015 14.0191C23.2015 14.099 23.1716 14.1689 23.1116 14.2288C22.5856 14.7349 22.0429 15.1078 21.4836 15.3475C20.9243 15.5805 20.2418 15.697 19.4361 15.697C18.97 15.697 18.3641 15.6438 17.6184 15.5372C16.3133 17.7612 15.1946 19.579 14.2624 20.9906C13.3369 22.3955 12.4979 23.5208 11.7455 24.3664C10.9931 25.2121 10.3273 25.8147 9.74796 26.1742C9.17533 26.5405 8.55276 26.7935 7.88024 26.9333C7.46742 27.0132 7.08455 27.0532 6.73165 27.0532C6.19897 27.0532 5.7362 26.9832 5.34334 26.8434C4.95715 26.7036 4.67083 26.5471 4.48439 26.374C4.30461 26.2009 4.16145 25.9945 4.05492 25.7547C3.94838 25.515 3.88512 25.3353 3.86515 25.2154C3.85183 25.0956 3.84517 24.979 3.84517 24.8658C3.84517 24.8126 3.88512 24.7526 3.96503 24.6861C4.04493 24.6261 4.09487 24.5962 4.11484 24.5962C4.18143 24.5962 4.23803 24.6228 4.28464 24.6761C4.33125 24.7293 4.35455 24.7926 4.35455 24.8658C4.35455 24.8925 4.35788 24.9324 4.36454 24.9857C4.3712 25.039 4.3945 25.1222 4.43445 25.2354C4.47441 25.3552 4.52434 25.4718 4.58427 25.585C4.65086 25.6982 4.75073 25.8147 4.8839 25.9345C5.01708 26.061 5.17022 26.1676 5.34334 26.2541C5.64964 26.4073 6.00254 26.4839 6.40205 26.4839C6.64176 26.4839 6.89478 26.4472 7.16112 26.374C7.48739 26.2808 7.81033 26.1343 8.12994 25.9345C8.44955 25.7414 8.8191 25.4418 9.23859 25.0356C9.65807 24.6361 10.1075 24.1267 10.5869 23.5075C11.073 22.8949 11.6323 22.1192 12.2649 21.1803C12.8974 20.2348 13.5966 19.1295 14.3623 17.8644C14.3557 17.871 14.3756 17.8311 14.4223 17.7445C14.4755 17.658 14.5421 17.5448 14.622 17.4049C14.7019 17.2585 14.7885 17.0987 14.8817 16.9255C14.9816 16.7458 15.0781 16.566 15.1713 16.3862C15.2712 16.2064 15.3611 16.0399 15.441 15.8868C15.5209 15.727 15.5842 15.5938 15.6308 15.4873C15.684 15.3808 15.7107 15.3142 15.7107 15.2875C15.4443 15.2476 15.2213 15.2276 15.0415 15.2276C14.5022 15.2276 13.9395 15.3009 13.3536 15.4473C12.7743 15.5872 12.468 15.6571 12.4347 15.6571L12.3748 15.697C12.3215 15.7237 12.2815 15.737 12.2549 15.737C12.1417 15.737 12.0651 15.697 12.0252 15.6171C11.9985 15.5639 11.9852 15.5173 11.9852 15.4773C11.9852 15.3907 12.0285 15.3142 12.1151 15.2476C12.155 15.221 12.2216 15.1843 12.3148 15.1377C12.4147 15.0844 12.5845 15.0079 12.8242 14.908C13.0639 14.8015 13.3203 14.7082 13.5933 14.6283C13.8729 14.5418 14.2125 14.4685 14.612 14.4086C15.0115 14.342 15.411 14.3087 15.8106 14.3087C16.0902 14.3087 16.2966 14.3154 16.4298 14.3287L17.6783 12.1813C17.6783 12.1547 17.6849 12.1347 17.6983 12.1214C18.0179 11.5488 18.4207 10.8929 18.9068 10.1538C19.1665 9.76095 19.3695 9.45466 19.516 9.23493C19.6625 9.0152 19.8789 8.71223 20.1652 8.32604C20.4516 7.93984 20.6979 7.63022 20.9043 7.39717C21.1174 7.15747 21.3804 6.88447 21.6934 6.57817C22.0063 6.27188 22.3026 6.02551 22.5823 5.83908C22.8686 5.65264 23.1882 5.47952 23.5411 5.31971C23.894 5.15991 24.2502 5.04671 24.6098 4.98013C24.703 4.96681 24.8395 4.96015 25.0193 4.96015Z" fill="white"/><path d="M31.955 22.1016C31.655 22.1016 31.4027 21.9993 31.1982 21.7948C31.0073 21.5902 30.9118 21.338 30.9118 21.038C30.9118 20.7379 31.0073 20.4925 31.1982 20.3016C31.4027 20.097 31.655 19.9947 31.955 19.9947C32.2414 19.9947 32.48 20.097 32.6709 20.3016C32.8755 20.4925 32.9778 20.7379 32.9778 21.038C32.9778 21.338 32.8755 21.5902 32.6709 21.7948C32.48 21.9993 32.2414 22.1016 31.955 22.1016Z" fill="white"/><path d="M53.9368 18.6038H47.4321L46.1843 21.9993H44.6707L49.8867 7.88538H51.5026L56.6982 21.9993H55.1845L53.9368 18.6038ZM53.5072 17.4174L50.6844 9.68542L47.8616 17.4174H53.5072Z" fill="white"/><path d="M69.4692 22.1016C69.1692 22.1016 68.9169 21.9993 68.7123 21.7948C68.5214 21.5902 68.426 21.338 68.426 21.038C68.426 20.7379 68.5214 20.4925 68.7123 20.3016C68.9169 20.097 69.1692 19.9947 69.4692 19.9947C69.7555 19.9947 69.9942 20.097 70.1851 20.3016C70.3897 20.4925 70.4919 20.7379 70.4919 21.038C70.4919 21.338 70.3897 21.5902 70.1851 21.7948C69.9942 21.9993 69.7555 22.1016 69.4692 22.1016Z" fill="white"/><path d="M94.9692 24.8017L91.7783 21.8357C91.0828 22.0402 90.3532 22.1425 89.5896 22.1425C88.2668 22.1425 87.0668 21.8357 85.9895 21.222C84.9122 20.5948 84.0599 19.7288 83.4326 18.6243C82.819 17.5061 82.5121 16.2447 82.5121 14.8401C82.5121 13.4355 82.819 12.1809 83.4326 11.0764C84.0599 9.95815 84.9122 9.09222 85.9895 8.47857C87.0668 7.85128 88.2668 7.53764 89.5896 7.53764C90.926 7.53764 92.1328 7.85128 93.2101 8.47857C94.2874 9.09222 95.1329 9.95815 95.7465 11.0764C96.3602 12.1809 96.667 13.4355 96.667 14.8401C96.667 16.2856 96.3465 17.5742 95.7056 18.7061C95.0647 19.8243 94.1851 20.6834 93.0669 21.2834L96.892 24.8017H94.9692ZM83.9849 14.8401C83.9849 16.0537 84.2304 17.1242 84.7213 18.0515C85.2122 18.9652 85.8804 19.6675 86.7259 20.1584C87.5713 20.6493 88.5259 20.8948 89.5896 20.8948C90.6532 20.8948 91.6078 20.6493 92.4533 20.1584C93.2987 19.6675 93.9669 18.9652 94.4579 18.0515C94.9488 17.1242 95.1942 16.0537 95.1942 14.8401C95.1942 13.6264 94.9488 12.5628 94.4579 11.6491C93.9669 10.7354 93.2987 10.0332 92.4533 9.54223C91.6078 9.05131 90.6532 8.80585 89.5896 8.80585C88.5259 8.80585 87.5713 9.05131 86.7259 9.54223C85.8804 10.0332 85.2122 10.7354 84.7213 11.6491C84.2304 12.5628 83.9849 13.6264 83.9849 14.8401Z" fill="white"/></svg>