<svg xmlns="http://www.w3.org/2000/svg" width="38" height="38" viewBox="0 0 38 38" fill="none"><path d="M9.61963 16.0666V12.9333C9.61963 7.74757 11.1863 3.5332 19.0197 3.5332C26.8531 3.5332 28.4198 7.74757 28.4198 12.9333V16.0666" stroke="white" stroke-width="2.35002" stroke-linecap="round" stroke-linejoin="round"></path><path d="M19.0197 29.3842C21.1829 29.3842 22.9364 27.6306 22.9364 25.4675C22.9364 23.3043 21.1829 21.5508 19.0197 21.5508C16.8566 21.5508 15.103 23.3043 15.103 25.4675C15.103 27.6306 16.8566 29.3842 19.0197 29.3842Z" stroke="white" stroke-width="2.35002" stroke-linecap="round" stroke-linejoin="round"></path><path d="M26.8532 34.8675H11.1864C4.91971 34.8675 3.35303 33.3008 3.35303 27.0341V23.9008C3.35303 17.6341 4.91971 16.0674 11.1864 16.0674H26.8532C33.1199 16.0674 34.6866 17.6341 34.6866 23.9008V27.0341C34.6866 33.3008 33.1199 34.8675 26.8532 34.8675Z" stroke="white" stroke-width="2.35002" stroke-linecap="round" stroke-linejoin="round"></path></svg>