<svg xmlns="http://www.w3.org/2000/svg" width="163" height="26" viewBox="0 0 163 26" fill="none"><path d="M31.4318 1.10291C31.525 1.28935 31.5716 1.49909 31.5716 1.73214C31.5716 2.01846 31.4751 2.30478 31.282 2.59109C30.9091 3.12378 30.2632 3.39012 29.3443 3.39012C28.6785 3.39012 27.9427 3.27359 27.137 3.04054C26.4246 3.92613 25.7554 4.88496 25.1295 5.91703C24.5036 6.9491 23.8211 8.16761 23.082 9.57257C22.3895 10.7311 21.9467 11.4869 21.7536 11.8398C20.6217 13.9306 19.5297 15.8649 18.4776 17.6427C17.9849 18.495 17.4755 19.274 16.9495 19.9799C16.4301 20.6857 15.8209 21.3715 15.1217 22.0373C14.4292 22.7099 13.7034 23.2758 12.9444 23.7353C12.1853 24.1947 11.323 24.5609 10.3575 24.8339C9.39205 25.1136 8.37662 25.2534 7.31126 25.2534C6.78523 25.2534 6.19928 25.2001 5.5534 25.0936C4.91419 24.9871 4.38816 24.8373 3.97533 24.6442C2.7435 24.0848 1.77802 23.1993 1.07887 21.9874C0.379724 20.7822 0.0301514 19.4039 0.0301514 17.8525C0.0301514 17.5661 0.0368099 17.3464 0.050127 17.1933C0.163322 15.482 0.616102 13.844 1.40847 12.2793C2.20749 10.7145 3.25621 9.39611 4.55463 8.32409C5.32701 7.67821 6.19928 7.16551 7.17143 6.78597C8.15023 6.40643 9.13902 6.21666 10.1378 6.21666C10.4441 6.21666 10.7504 6.23664 11.0567 6.27659C12.5748 6.45637 13.6169 7.17882 14.1829 8.44394C14.4425 9.02989 14.5724 9.69908 14.5724 10.4515C14.5724 11.2905 14.4192 12.1561 14.113 13.0483C13.8067 13.9339 13.4071 14.7229 12.9144 15.4154C12.5815 15.9015 12.2086 16.351 11.7958 16.7638C11.7492 16.8171 11.6793 16.8903 11.586 16.9835C11.4995 17.0767 11.3264 17.2499 11.0667 17.5029C10.807 17.7492 10.5506 17.979 10.2976 18.192C10.0512 18.4051 9.7616 18.6248 9.42867 18.8512C9.1024 19.0776 8.8061 19.2507 8.53976 19.3706C8.4199 19.4105 8.30338 19.4305 8.19018 19.4305C7.94382 19.4305 7.78068 19.3406 7.70078 19.1609C7.67415 19.081 7.66083 19.0144 7.66083 18.9611C7.66083 18.8213 7.7141 18.6948 7.82064 18.5816C7.93383 18.4684 8.10362 18.3885 8.33001 18.3419C8.54309 18.2686 8.76615 18.182 8.9992 18.0822C9.23224 17.9756 9.53188 17.8192 9.8981 17.6127C10.2643 17.3997 10.6472 17.1134 11.0467 16.7538C11.4529 16.3942 11.8324 15.9914 12.1853 15.5453L12.5049 15.1158C12.971 14.5032 13.3439 13.7808 13.6235 12.9484C13.9032 12.1095 14.043 11.2905 14.043 10.4914C14.043 9.77232 13.9265 9.15641 13.6935 8.6437C13.214 7.56502 12.3151 6.94577 10.9968 6.78597C10.7837 6.75934 10.6139 6.74602 10.4874 6.74602C9.15567 6.74602 7.68081 7.40188 6.06278 8.71361C4.81098 9.74569 3.80554 11.0141 3.04647 12.519C2.29405 14.0238 1.86791 15.5985 1.76803 17.2432C1.75471 17.4496 1.74805 17.7559 1.74805 18.1621C1.74805 18.8612 1.80465 19.5104 1.91785 20.1097C2.03104 20.7156 2.20749 21.2783 2.4472 21.7976C2.68691 22.3237 3.00319 22.7898 3.39604 23.1959C3.79555 23.6021 4.26165 23.9284 4.79433 24.1747C5.45353 24.4877 6.23258 24.6442 7.13148 24.6442H7.45109C8.05701 24.6109 8.61633 24.5343 9.12904 24.4144C9.6484 24.2946 10.1811 24.1015 10.7271 23.8351C11.2731 23.5688 11.8024 23.2192 12.3151 22.7864C12.8345 22.3603 13.3805 21.8276 13.9531 21.1884C14.5324 20.5492 15.1317 19.7934 15.7509 18.9211C16.3769 18.0422 17.0427 17.0235 17.7485 15.8649C17.9216 15.5786 18.1813 15.1191 18.5276 14.4866C18.8805 13.854 19.2134 13.2481 19.5263 12.6688C19.8393 12.0895 20.1323 11.5402 20.4053 11.0208C20.6849 10.4948 20.8347 10.2151 20.8547 10.1818L20.9146 10.0819C21.0944 9.74236 21.3175 9.33619 21.5838 8.86343C21.8568 8.39068 22.2297 7.7681 22.7025 6.99571C23.1752 6.22332 23.6979 5.45093 24.2705 4.67854C24.8498 3.90615 25.4025 3.25695 25.9285 2.73092C25.4891 2.61773 24.9364 2.46125 24.2705 2.2615C24.0109 2.18825 23.6014 2.0684 23.042 1.90193C22.4894 1.72881 22.0766 1.60563 21.8036 1.53239C21.5372 1.45248 21.2076 1.37924 20.8148 1.31265C20.4219 1.23941 20.0657 1.20279 19.7461 1.20279H19.4664C18.7473 1.20279 18.0914 1.33596 17.4988 1.6023C16.9129 1.86864 16.4568 2.24485 16.1305 2.73092C15.8309 3.16373 15.681 3.65646 15.681 4.20912C15.681 4.60863 15.7743 5.01147 15.9607 5.41764C16.2004 5.90371 16.5699 6.25662 17.0693 6.47635C17.4356 6.60286 17.7485 6.66612 18.0082 6.66612C18.3145 6.66612 18.6008 6.60952 18.8671 6.49632C19.1335 6.37647 19.3233 6.25662 19.4364 6.13676L19.6062 5.96697C19.7394 5.8338 19.8959 5.76721 20.0757 5.76721C20.2488 5.76721 20.3786 5.82048 20.4652 5.92702C20.5185 6.03355 20.5451 6.12344 20.5451 6.19669C20.5451 6.44971 20.4019 6.63948 20.1156 6.76599C19.563 7.07894 18.8871 7.23542 18.0881 7.23542H17.8684C17.5421 7.23542 17.3523 7.22876 17.2991 7.21544C16.7397 7.16883 16.2537 7.00903 15.8408 6.73603C15.428 6.45637 15.1084 6.09015 14.882 5.63737C14.6623 5.14464 14.5524 4.67521 14.5524 4.22909C14.5524 3.58987 14.7355 2.99726 15.1017 2.45126C15.468 1.89195 16.0273 1.45581 16.7797 1.14286C17.5321 0.829911 18.3378 0.673435 19.1967 0.673435H19.4864C19.9259 0.700069 20.4419 0.773313 21.0345 0.893167C21.6338 1.01302 22.1498 1.13287 22.5826 1.25273C23.0154 1.37258 23.6247 1.5457 24.4104 1.77209L26.358 2.33141C27.6564 1.033 28.8982 0.383789 30.0834 0.383789C30.3698 0.383789 30.6328 0.450374 30.8725 0.583545C31.1188 0.710057 31.3053 0.883179 31.4318 1.10291ZM30.5728 2.59109C30.8991 2.40465 31.0622 2.13165 31.0622 1.77209C31.0622 1.50575 30.9524 1.29601 30.7326 1.14286C30.5129 0.989716 30.2799 0.913143 30.0335 0.913143C29.1679 0.953094 28.3023 1.50575 27.4367 2.57112C28.1292 2.77753 28.7318 2.88074 29.2445 2.88074C29.7905 2.88074 30.2333 2.78419 30.5728 2.59109Z" fill="white"></path><path d="M47.7581 5.88587V19.9998H46.3262V8.72912L41.2943 19.9998H40.2511L35.2192 8.77003V19.9998H33.7873V5.88587H35.301L40.7625 18.118L46.224 5.88587H47.7581Z" fill="white"></path><path d="M62.6656 6.86771V12.2065H68.0862V13.3929H62.6656V18.8134H68.6999V19.9998H61.2338V5.68132H68.6999V6.86771H62.6656Z" fill="white"></path><path d="M89.358 19.9998L85.8193 14.027H83.1806V19.9998H81.7487V5.70177H86.0443C87.6398 5.70177 88.8466 6.0836 89.6648 6.84725C90.4967 7.61091 90.9126 8.6132 90.9126 9.85414C90.9126 10.8905 90.6126 11.7769 90.0126 12.5133C89.4262 13.236 88.5534 13.7065 87.3943 13.9247L91.0762 19.9998H89.358ZM83.1806 12.861H86.0647C87.183 12.861 88.0216 12.5883 88.5807 12.0428C89.1535 11.4974 89.4398 10.7678 89.4398 9.85414C89.4398 8.91321 89.1671 8.19047 88.6216 7.68591C88.0762 7.16772 87.217 6.90862 86.0443 6.90862H83.1806V12.861Z" fill="white"></path><path d="M108.318 20.143C107.377 20.143 106.545 19.9794 105.823 19.6521C105.113 19.3248 104.554 18.868 104.145 18.2816C103.736 17.6952 103.518 17.0407 103.491 16.3179H105.004C105.073 17.0134 105.379 17.627 105.925 18.1589C106.47 18.6771 107.268 18.9362 108.318 18.9362C109.286 18.9362 110.05 18.6907 110.609 18.1998C111.182 17.6952 111.468 17.0611 111.468 16.2975C111.468 15.6838 111.311 15.1929 110.998 14.8247C110.684 14.4429 110.295 14.1633 109.832 13.9861C109.368 13.7951 108.727 13.5906 107.909 13.3724C106.954 13.1133 106.198 12.861 105.638 12.6156C105.079 12.3701 104.602 11.9883 104.207 11.4701C103.811 10.9519 103.613 10.2496 103.613 9.36322C103.613 8.62684 103.804 7.97228 104.186 7.39954C104.568 6.81316 105.107 6.35633 105.802 6.02905C106.498 5.70177 107.295 5.53813 108.195 5.53813C109.518 5.53813 110.582 5.86541 111.386 6.51997C112.204 7.1609 112.675 7.99273 112.798 9.01549H111.243C111.148 8.42911 110.827 7.91091 110.282 7.4609C109.736 6.99726 109 6.76543 108.073 6.76543C107.213 6.76543 106.498 6.99726 105.925 7.4609C105.352 7.91091 105.066 8.53138 105.066 9.32231C105.066 9.92232 105.223 10.4064 105.536 10.7746C105.85 11.1428 106.238 11.4224 106.702 11.6133C107.179 11.8042 107.82 12.0087 108.625 12.2269C109.552 12.486 110.302 12.7451 110.875 13.0042C111.448 13.2497 111.932 13.6315 112.327 14.1497C112.723 14.6679 112.92 15.3634 112.92 16.2361C112.92 16.9043 112.743 17.5384 112.389 18.1384C112.034 18.7384 111.509 19.2225 110.814 19.5907C110.118 19.9589 109.286 20.143 108.318 20.143Z" fill="white"></path><path d="M134.199 16.6043H127.694L126.447 19.9998H124.933L130.149 5.88587H131.765L136.96 19.9998H135.447L134.199 16.6043ZM133.77 15.4179L130.947 7.68591L128.124 15.4179H133.77ZM128.267 4.65857C128.349 4.04492 128.547 3.57445 128.86 3.24717C129.174 2.91989 129.576 2.75625 130.067 2.75625C130.313 2.75625 130.524 2.80398 130.701 2.89944C130.879 2.98126 131.09 3.10399 131.335 3.26763C131.54 3.41763 131.717 3.53354 131.867 3.61536C132.017 3.68354 132.181 3.71764 132.358 3.71764C132.59 3.71764 132.788 3.64263 132.951 3.49263C133.115 3.32899 133.217 3.09717 133.258 2.79716H134.117C134.063 3.39717 133.865 3.86764 133.524 4.20856C133.197 4.53584 132.788 4.69948 132.297 4.69948C132.038 4.69948 131.813 4.65857 131.622 4.57675C131.444 4.48129 131.233 4.34492 130.988 4.16765C130.797 4.01764 130.626 3.90855 130.476 3.84037C130.34 3.77218 130.183 3.73809 130.006 3.73809C129.515 3.73809 129.229 4.04492 129.147 4.65857H128.267Z" fill="white"></path><path d="M155.909 20.143C154.586 20.143 153.386 19.8362 152.309 19.2225C151.231 18.5953 150.379 17.7293 149.752 16.6248C149.138 15.5065 148.831 14.2452 148.831 12.8406C148.831 11.436 149.138 10.1814 149.752 9.07685C150.379 7.95864 151.231 7.09271 152.309 6.47906C153.386 5.85178 154.586 5.53813 155.909 5.53813C157.245 5.53813 158.452 5.85178 159.529 6.47906C160.607 7.09271 161.452 7.95864 162.066 9.07685C162.679 10.1814 162.986 11.436 162.986 12.8406C162.986 14.2452 162.679 15.5065 162.066 16.6248C161.452 17.7293 160.607 18.5953 159.529 19.2225C158.452 19.8362 157.245 20.143 155.909 20.143ZM155.909 18.8953C156.973 18.8953 157.927 18.6498 158.773 18.1589C159.618 17.668 160.286 16.9657 160.777 16.052C161.268 15.1247 161.514 14.0542 161.514 12.8406C161.514 11.6269 161.268 10.5632 160.777 9.64959C160.286 8.73593 159.618 8.03364 158.773 7.54272C157.927 7.0518 156.973 6.80634 155.909 6.80634C154.845 6.80634 153.891 7.0518 153.045 7.54272C152.2 8.03364 151.531 8.73593 151.041 9.64959C150.55 10.5632 150.304 11.6269 150.304 12.8406C150.304 14.0542 150.55 15.1247 151.041 16.052C151.531 16.9657 152.2 17.668 153.045 18.1589C153.891 18.6498 154.845 18.8953 155.909 18.8953Z" fill="white"></path></svg>