<svg xmlns="http://www.w3.org/2000/svg" width="267" height="26" viewBox="0 0 267 26" fill="none"><path d="M31.665 1.10291C31.7582 1.28935 31.8048 1.49909 31.8048 1.73214C31.8048 2.01846 31.7083 2.30478 31.5152 2.59109C31.1423 3.12378 30.4964 3.39012 29.5776 3.39012C28.9117 3.39012 28.1759 3.27359 27.3703 3.04054C26.6578 3.92613 25.9886 4.88496 25.3627 5.91703C24.7368 6.9491 24.0543 8.16761 23.3152 9.57257C22.6227 10.7311 22.1799 11.4869 21.9868 11.8398C20.8549 13.9306 19.7629 15.8649 18.7108 17.6427C18.2181 18.495 17.7087 19.274 17.1827 19.9799C16.6633 20.6857 16.0541 21.3715 15.3549 22.0373C14.6624 22.7099 13.9367 23.2758 13.1776 23.7353C12.4185 24.1947 11.5562 24.5609 10.5908 24.8339C9.62527 25.1136 8.60984 25.2534 7.54447 25.2534C7.01845 25.2534 6.4325 25.2001 5.78662 25.0936C5.1474 24.9871 4.62138 24.8373 4.20855 24.6442C2.97672 24.0848 2.01123 23.1993 1.31209 21.9874C0.61294 20.7822 0.263367 19.4039 0.263367 17.8525C0.263367 17.5661 0.270025 17.3464 0.283342 17.1933C0.396537 15.482 0.849318 13.844 1.64168 12.2793C2.44071 10.7145 3.48943 9.39611 4.78784 8.32409C5.56023 7.67821 6.4325 7.16551 7.40464 6.78597C8.38345 6.40643 9.37224 6.21666 10.371 6.21666C10.6773 6.21666 10.9836 6.23664 11.2899 6.27659C12.808 6.45637 13.8501 7.17882 14.4161 8.44394C14.6758 9.02989 14.8056 9.69908 14.8056 10.4515C14.8056 11.2905 14.6525 12.1561 14.3462 13.0483C14.0399 13.9339 13.6404 14.7229 13.1476 15.4154C12.8147 15.9015 12.4418 16.351 12.029 16.7638C11.9824 16.8171 11.9125 16.8903 11.8193 16.9835C11.7327 17.0767 11.5596 17.2499 11.2999 17.5029C11.0402 17.7492 10.7838 17.979 10.5308 18.192C10.2845 18.4051 9.99481 18.6248 9.66189 18.8512C9.33562 19.0776 9.03931 19.2507 8.77297 19.3706C8.65312 19.4105 8.53659 19.4305 8.4234 19.4305C8.17703 19.4305 8.0139 19.3406 7.934 19.1609C7.90736 19.081 7.89405 19.0144 7.89405 18.9611C7.89405 18.8213 7.94731 18.6948 8.05385 18.5816C8.16705 18.4684 8.33684 18.3885 8.56323 18.3419C8.7763 18.2686 8.99936 18.182 9.23241 18.0822C9.46546 17.9756 9.76509 17.8192 10.1313 17.6127C10.4975 17.3997 10.8804 17.1134 11.2799 16.7538C11.6861 16.3942 12.0656 15.9914 12.4185 15.5453L12.7381 15.1158C13.2042 14.5032 13.5771 13.7808 13.8568 12.9484C14.1364 12.1095 14.2763 11.2905 14.2763 10.4914C14.2763 9.77232 14.1597 9.15641 13.9267 8.6437C13.4473 7.56502 12.5484 6.94577 11.23 6.78597C11.0169 6.75934 10.8471 6.74602 10.7206 6.74602C9.38889 6.74602 7.91402 7.40188 6.296 8.71361C5.04419 9.74569 4.03876 11.0141 3.27968 12.519C2.52727 14.0238 2.10112 15.5985 2.00124 17.2432C1.98793 17.4496 1.98127 17.7559 1.98127 18.1621C1.98127 18.8612 2.03787 19.5104 2.15106 20.1097C2.26426 20.7156 2.44071 21.2783 2.68041 21.7976C2.92012 22.3237 3.2364 22.7898 3.62926 23.1959C4.02877 23.6021 4.49486 23.9284 5.02755 24.1747C5.68674 24.4877 6.46579 24.6442 7.36469 24.6442H7.6843C8.29023 24.6109 8.84955 24.5343 9.36225 24.4144C9.88162 24.2946 10.4143 24.1015 10.9603 23.8351C11.5063 23.5688 12.0357 23.2192 12.5484 22.7864C13.0677 22.3603 13.6137 21.8276 14.1864 21.1884C14.7657 20.5492 15.3649 19.7934 15.9842 18.9211C16.6101 18.0422 17.2759 17.0235 17.9817 15.8649C18.1548 15.5786 18.4145 15.1191 18.7608 14.4866C19.1137 13.854 19.4466 13.2481 19.7596 12.6688C20.0725 12.0895 20.3655 11.5402 20.6385 11.0208C20.9181 10.4948 21.068 10.2151 21.0879 10.1818L21.1479 10.0819C21.3276 9.74236 21.5507 9.33619 21.817 8.86343C22.09 8.39068 22.4629 7.7681 22.9357 6.99571C23.4084 6.22332 23.9311 5.45093 24.5038 4.67854C25.083 3.90615 25.6357 3.25695 26.1617 2.73092C25.7223 2.61773 25.1696 2.46125 24.5038 2.2615C24.2441 2.18825 23.8346 2.0684 23.2753 1.90193C22.7226 1.72881 22.3098 1.60563 22.0368 1.53239C21.7704 1.45248 21.4408 1.37924 21.048 1.31265C20.6551 1.23941 20.2989 1.20279 19.9793 1.20279H19.6996C18.9805 1.20279 18.3246 1.33596 17.732 1.6023C17.1461 1.86864 16.69 2.24485 16.3637 2.73092C16.0641 3.16373 15.9143 3.65646 15.9143 4.20912C15.9143 4.60863 16.0075 5.01147 16.1939 5.41764C16.4336 5.90371 16.8032 6.25662 17.3026 6.47635C17.6688 6.60286 17.9817 6.66612 18.2414 6.66612C18.5477 6.66612 18.834 6.60952 19.1004 6.49632C19.3667 6.37647 19.5565 6.25662 19.6697 6.13676L19.8395 5.96697C19.9726 5.8338 20.1291 5.76721 20.3089 5.76721C20.482 5.76721 20.6118 5.82048 20.6984 5.92702C20.7517 6.03355 20.7783 6.12344 20.7783 6.19669C20.7783 6.44971 20.6352 6.63948 20.3488 6.76599C19.7962 7.07894 19.1203 7.23542 18.3213 7.23542H18.1016C17.7753 7.23542 17.5855 7.22876 17.5323 7.21544C16.973 7.16883 16.4869 7.00903 16.0741 6.73603C15.6612 6.45637 15.3416 6.09015 15.1152 5.63737C14.8955 5.14464 14.7856 4.67521 14.7856 4.22909C14.7856 3.58987 14.9687 2.99726 15.335 2.45126C15.7012 1.89195 16.2605 1.45581 17.0129 1.14286C17.7653 0.829911 18.571 0.673435 19.43 0.673435H19.7196C20.1591 0.700069 20.6751 0.773313 21.2677 0.893167C21.867 1.01302 22.383 1.13287 22.8158 1.25273C23.2486 1.37258 23.8579 1.5457 24.6436 1.77209L26.5912 2.33141C27.8896 1.033 29.1314 0.383789 30.3167 0.383789C30.603 0.383789 30.866 0.450374 31.1057 0.583545C31.3521 0.710057 31.5385 0.883179 31.665 1.10291ZM30.8061 2.59109C31.1323 2.40465 31.2955 2.13165 31.2955 1.77209C31.2955 1.50575 31.1856 1.29601 30.9659 1.14286C30.7461 0.989716 30.5131 0.913143 30.2667 0.913143C29.4011 0.953094 28.5355 1.50575 27.6699 2.57112C28.3624 2.77753 28.965 2.88074 29.4777 2.88074C30.0237 2.88074 30.4665 2.78419 30.8061 2.59109Z" fill="white"></path><path d="M44.8003 19.9998H43.3685L35.4524 7.97228V19.9998H34.0205V5.70177H35.4524L43.3685 17.7089V5.70177H44.8003V19.9998Z" fill="white"></path><path d="M69.603 5.70177L64.1824 19.9998H62.546L57.1254 5.70177H58.68L63.3642 18.4452L68.0893 5.70177H69.603Z" fill="white"></path><path d="M83.4138 6.86771V12.2065H88.8344V13.3929H83.4138V18.8134H89.448V19.9998H81.9819V5.68132H89.448V6.86771H83.4138Z" fill="white"></path><path d="M106.833 20.143C105.892 20.143 105.061 19.9794 104.338 19.6521C103.629 19.3248 103.07 18.868 102.661 18.2816C102.251 17.6952 102.033 17.0407 102.006 16.3179H103.52C103.588 17.0134 103.895 17.627 104.44 18.1589C104.986 18.6771 105.783 18.9362 106.833 18.9362C107.802 18.9362 108.565 18.6907 109.124 18.1998C109.697 17.6952 109.983 17.0611 109.983 16.2975C109.983 15.6838 109.827 15.1929 109.513 14.8247C109.199 14.4429 108.811 14.1633 108.347 13.9861C107.883 13.7951 107.242 13.5906 106.424 13.3724C105.47 13.1133 104.713 12.861 104.154 12.6156C103.595 12.3701 103.117 11.9883 102.722 11.4701C102.326 10.9519 102.129 10.2496 102.129 9.36322C102.129 8.62684 102.32 7.97228 102.701 7.39954C103.083 6.81316 103.622 6.35633 104.317 6.02905C105.013 5.70177 105.811 5.53813 106.711 5.53813C108.033 5.53813 109.097 5.86541 109.902 6.51997C110.72 7.1609 111.19 7.99273 111.313 9.01549H109.758C109.663 8.42911 109.343 7.91091 108.797 7.4609C108.252 6.99726 107.515 6.76543 106.588 6.76543C105.729 6.76543 105.013 6.99726 104.44 7.4609C103.867 7.91091 103.581 8.53138 103.581 9.32231C103.581 9.92232 103.738 10.4064 104.051 10.7746C104.365 11.1428 104.754 11.4224 105.217 11.6133C105.695 11.8042 106.336 12.0087 107.14 12.2269C108.067 12.486 108.817 12.7451 109.39 13.0042C109.963 13.2497 110.447 13.6315 110.843 14.1497C111.238 14.6679 111.436 15.3634 111.436 16.2361C111.436 16.9043 111.258 17.5384 110.904 18.1384C110.549 18.7384 110.024 19.2225 109.329 19.5907C108.633 19.9589 107.802 20.143 106.833 20.143Z" fill="white"></path><path d="M132.796 5.70177V6.88816H128.828V19.9998H127.396V6.88816H123.407V5.70177H132.796Z" fill="white"></path><path d="M146.716 5.70177V19.9998H145.285V5.70177H146.716Z" fill="white"></path><path d="M174.157 5.88587V19.9998H172.725V8.72912L167.693 19.9998H166.65L161.618 8.77003V19.9998H160.186V5.88587H161.7L167.162 18.118L172.623 5.88587H174.157Z" fill="white"></path><path d="M189.065 6.86771V12.2065H194.485V13.3929H189.065V18.8134H195.099V19.9998H187.633V5.68132H195.099V6.86771H189.065Z" fill="white"></path><path d="M218.928 19.9998H217.496L209.58 7.97228V19.9998H208.148V5.70177H209.58L217.496 17.7089V5.70177H218.928V19.9998Z" fill="white"></path><path d="M240.764 5.70177V6.88816H236.796V19.9998H235.364V6.88816H231.375V5.70177H240.764Z" fill="white"></path><path d="M259.676 20.143C258.353 20.143 257.153 19.8362 256.076 19.2225C254.998 18.5953 254.146 17.7293 253.519 16.6248C252.905 15.5065 252.598 14.2452 252.598 12.8406C252.598 11.436 252.905 10.1814 253.519 9.07685C254.146 7.95864 254.998 7.09271 256.076 6.47906C257.153 5.85178 258.353 5.53813 259.676 5.53813C261.012 5.53813 262.219 5.85178 263.296 6.47906C264.373 7.09271 265.219 7.95864 265.833 9.07685C266.446 10.1814 266.753 11.436 266.753 12.8406C266.753 14.2452 266.446 15.5065 265.833 16.6248C265.219 17.7293 264.373 18.5953 263.296 19.2225C262.219 19.8362 261.012 20.143 259.676 20.143ZM259.676 18.8953C260.739 18.8953 261.694 18.6498 262.539 18.1589C263.385 17.668 264.053 16.9657 264.544 16.052C265.035 15.1247 265.28 14.0542 265.28 12.8406C265.28 11.6269 265.035 10.5632 264.544 9.64959C264.053 8.73593 263.385 8.03364 262.539 7.54272C261.694 7.0518 260.739 6.80634 259.676 6.80634C258.612 6.80634 257.657 7.0518 256.812 7.54272C255.966 8.03364 255.298 8.73593 254.807 9.64959C254.316 10.5632 254.071 11.6269 254.071 12.8406C254.071 14.0542 254.316 15.1247 254.807 16.052C255.298 16.9657 255.966 17.668 256.812 18.1589C257.657 18.6498 258.612 18.8953 259.676 18.8953Z" fill="white"></path></svg>