<svg xmlns="http://www.w3.org/2000/svg" width="460" height="96" viewBox="0 0 460 96" fill="none"><path d="M182.65 3.1844C182.74 3.36414 182.785 3.56635 182.785 3.79103C182.785 4.06705 182.692 4.34308 182.506 4.61911C182.146 5.13266 181.524 5.38943 180.638 5.38943C179.996 5.38943 179.286 5.27709 178.51 5.05242C177.823 5.90618 177.178 6.83056 176.574 7.82555C175.971 8.82054 175.313 9.99527 174.6 11.3497C173.933 12.4667 173.506 13.1953 173.32 13.5355C172.228 15.5512 171.176 17.416 170.161 19.1299C169.686 19.9516 169.195 20.7026 168.688 21.3831C168.187 22.0635 167.6 22.7247 166.926 23.3666C166.258 24.015 165.559 24.5606 164.827 25.0036C164.095 25.4465 163.264 25.7996 162.333 26.0627C161.402 26.3324 160.423 26.4672 159.396 26.4672C158.889 26.4672 158.324 26.4158 157.702 26.3131C157.085 26.2104 156.578 26.066 156.18 25.8798C154.993 25.3406 154.062 24.4868 153.388 23.3185C152.714 22.1566 152.377 20.8278 152.377 19.3321C152.377 19.0561 152.383 18.8443 152.396 18.6966C152.505 17.0469 152.942 15.4677 153.706 13.9592C154.476 12.4506 155.487 11.1796 156.739 10.1461C157.483 9.52345 158.324 9.02916 159.261 8.66327C160.205 8.29737 161.158 8.11442 162.121 8.11442C162.417 8.11442 162.712 8.13367 163.007 8.17219C164.471 8.34551 165.475 9.042 166.021 10.2617C166.271 10.8266 166.396 11.4717 166.396 12.1971C166.396 13.0059 166.249 13.8404 165.954 14.7006C165.658 15.5544 165.273 16.3151 164.798 16.9827C164.477 17.4513 164.118 17.8846 163.72 18.2826C163.675 18.3339 163.607 18.4045 163.517 18.4944C163.434 18.5843 163.267 18.7512 163.017 18.9951C162.766 19.2326 162.519 19.4541 162.275 19.6595C162.038 19.8649 161.759 20.0768 161.438 20.295C161.123 20.5133 160.837 20.6802 160.581 20.7957C160.465 20.8342 160.353 20.8535 160.244 20.8535C160.006 20.8535 159.849 20.7668 159.772 20.5935C159.746 20.5165 159.733 20.4523 159.733 20.4009C159.733 20.2661 159.785 20.1442 159.887 20.035C159.996 19.9259 160.16 19.8489 160.378 19.8039C160.584 19.7333 160.799 19.6499 161.024 19.5536C161.248 19.4509 161.537 19.3 161.89 19.101C162.243 18.8956 162.612 18.6196 162.997 18.2729C163.389 17.9263 163.755 17.5379 164.095 17.1078L164.403 16.6938C164.853 16.1032 165.212 15.4067 165.482 14.6043C165.751 13.7955 165.886 13.0059 165.886 12.2356C165.886 11.5423 165.774 10.9485 165.549 10.4542C165.087 9.41432 164.22 8.81733 162.949 8.66327C162.744 8.63759 162.58 8.62475 162.458 8.62475C161.174 8.62475 159.753 9.25705 158.193 10.5216C156.986 11.5166 156.016 12.7395 155.285 14.1903C154.559 15.641 154.148 17.1592 154.052 18.7448C154.039 18.9438 154.033 19.239 154.033 19.6306C154.033 20.3046 154.087 20.9305 154.197 21.5083C154.306 22.0924 154.476 22.6348 154.707 23.1356C154.938 23.6427 155.243 24.092 155.622 24.4836C156.007 24.8752 156.456 25.1897 156.97 25.4272C157.605 25.7289 158.356 25.8798 159.223 25.8798H159.531C160.115 25.8477 160.654 25.7739 161.149 25.6583C161.649 25.5428 162.163 25.3566 162.689 25.0999C163.216 24.8431 163.726 24.5061 164.22 24.0888C164.721 23.678 165.247 23.1644 165.799 22.5482C166.358 21.9319 166.936 21.2033 167.533 20.3624C168.136 19.5151 168.778 18.5329 169.458 17.416C169.625 17.1399 169.876 16.697 170.21 16.0872C170.55 15.4773 170.871 14.8932 171.172 14.3347C171.474 13.7762 171.757 13.2466 172.02 12.7459C172.289 12.2388 172.434 11.9692 172.453 11.9371L172.511 11.8408C172.684 11.5134 172.899 11.1219 173.156 10.6661C173.419 10.2103 173.779 9.61011 174.234 8.86547C174.69 8.12084 175.194 7.3762 175.746 6.63156C176.305 5.88692 176.837 5.26104 177.345 4.75392C176.921 4.64479 176.388 4.49394 175.746 4.30136C175.496 4.23075 175.101 4.1152 174.562 3.95472C174.029 3.78782 173.631 3.66906 173.368 3.59845C173.111 3.52142 172.793 3.4508 172.415 3.38661C172.036 3.316 171.692 3.28069 171.384 3.28069H171.115C170.421 3.28069 169.789 3.40908 169.218 3.66585C168.653 3.92262 168.213 4.28531 167.899 4.75392C167.61 5.17117 167.465 5.6462 167.465 6.179C167.465 6.56416 167.555 6.95253 167.735 7.3441C167.966 7.81271 168.322 8.15293 168.804 8.36477C169.157 8.48674 169.458 8.54772 169.709 8.54772C170.004 8.54772 170.28 8.49315 170.537 8.38403C170.794 8.26848 170.977 8.15293 171.086 8.03738L171.249 7.87369C171.378 7.74531 171.529 7.68111 171.702 7.68111C171.869 7.68111 171.994 7.73247 172.078 7.83518C172.129 7.93789 172.155 8.02455 172.155 8.09516C172.155 8.33909 172.017 8.52204 171.741 8.64401C171.208 8.94571 170.556 9.09657 169.786 9.09657H169.574C169.259 9.09657 169.077 9.09015 169.025 9.07731C168.486 9.03237 168.017 8.87831 167.619 8.61512C167.221 8.34551 166.913 7.99245 166.695 7.55594C166.483 7.08091 166.377 6.62835 166.377 6.19826C166.377 5.58201 166.554 5.01069 166.907 4.48431C167.26 3.94509 167.799 3.52462 168.524 3.22292C169.25 2.92121 170.027 2.77036 170.855 2.77036H171.134C171.558 2.79604 172.055 2.86665 172.626 2.9822C173.204 3.09774 173.702 3.21329 174.119 3.32884C174.536 3.44438 175.123 3.61129 175.881 3.82954L177.759 4.36876C179.01 3.117 180.208 2.49112 181.35 2.49112C181.626 2.49112 181.88 2.55531 182.111 2.6837C182.348 2.80566 182.528 2.97257 182.65 3.1844ZM181.822 4.61911C182.137 4.43937 182.294 4.17618 182.294 3.82954C182.294 3.57277 182.188 3.37056 181.976 3.22292C181.764 3.07527 181.54 3.00145 181.302 3.00145C180.468 3.03997 179.633 3.57277 178.799 4.59986C179.466 4.79885 180.047 4.89835 180.541 4.89835C181.068 4.89835 181.495 4.80527 181.822 4.61911ZM198.39 7.7955V21.4023H197.009V10.5366L192.158 21.4023H191.153L186.301 10.576V21.4023H184.921V7.7955H186.38L191.646 19.5881L196.911 7.7955H198.39ZM212.762 8.74207V13.889H217.988V15.0328H212.762V20.2586H218.579V21.4023H211.381V7.5983H218.579V8.74207H212.762ZM238.495 21.4023L235.083 15.6441H232.54V21.4023H231.159V7.61802H235.3C236.839 7.61802 238.002 7.98613 238.791 8.72235C239.593 9.45856 239.994 10.4248 239.994 11.6212C239.994 12.6203 239.704 13.4749 239.126 14.1848C238.561 14.8816 237.719 15.3351 236.602 15.5455L240.151 21.4023H238.495ZM232.54 14.52H235.32C236.398 14.52 237.207 14.2571 237.746 13.7312C238.298 13.2054 238.574 12.502 238.574 11.6212C238.574 10.7141 238.311 10.0173 237.785 9.53087C237.259 9.0313 236.431 8.78151 235.3 8.78151H232.54V14.52ZM256.774 21.5404C255.867 21.5404 255.065 21.3826 254.368 21.0671C253.684 20.7516 253.145 20.3112 252.751 19.7459C252.356 19.1806 252.146 18.5495 252.12 17.8527H253.579C253.645 18.5232 253.941 19.1148 254.467 19.6275C254.992 20.1271 255.761 20.3769 256.774 20.3769C257.707 20.3769 258.443 20.1403 258.982 19.667C259.535 19.1806 259.811 18.5692 259.811 17.833C259.811 17.2414 259.659 16.7681 259.357 16.4132C259.055 16.0451 258.68 15.7756 258.233 15.6046C257.786 15.4206 257.168 15.2234 256.379 15.013C255.459 14.7633 254.729 14.52 254.19 14.2834C253.651 14.0468 253.191 13.6787 252.81 13.1791C252.429 12.6795 252.238 12.0025 252.238 11.1479C252.238 10.438 252.422 9.80695 252.79 9.25479C253.158 8.68948 253.678 8.24907 254.348 7.93355C255.019 7.61803 255.788 7.46026 256.655 7.46026C257.931 7.46026 258.956 7.77579 259.732 8.40683C260.521 9.02472 260.974 9.82667 261.092 10.8127H259.594C259.502 10.2474 259.193 9.74779 258.667 9.31395C258.141 8.86696 257.431 8.64347 256.537 8.64347C255.709 8.64347 255.019 8.86696 254.467 9.31395C253.914 9.74779 253.638 10.346 253.638 11.1085C253.638 11.6869 253.789 12.1536 254.092 12.5086C254.394 12.8636 254.769 13.1331 255.216 13.3171C255.676 13.5012 256.294 13.6984 257.07 13.9087C257.964 14.1585 258.687 14.4083 259.239 14.6581C259.791 14.8947 260.258 15.2628 260.639 15.7624C261.02 16.262 261.211 16.9325 261.211 17.7739C261.211 18.418 261.04 19.0294 260.698 19.6078C260.356 20.1863 259.85 20.653 259.18 21.0079C258.509 21.3629 257.707 21.5404 256.774 21.5404ZM281.725 18.1288H275.454L274.251 21.4023H272.792L277.82 7.7955H279.378L284.387 21.4023H282.928L281.725 18.1288ZM281.311 16.9851L278.589 9.53087L275.868 16.9851H281.311ZM276.006 6.6123C276.085 6.0207 276.276 5.56714 276.578 5.25162C276.88 4.9361 277.268 4.77834 277.741 4.77834C277.978 4.77834 278.182 4.82435 278.353 4.91638C278.524 4.99526 278.727 5.11358 278.964 5.27134C279.161 5.41595 279.332 5.5277 279.477 5.60658C279.621 5.67231 279.779 5.70518 279.95 5.70518C280.174 5.70518 280.364 5.63287 280.522 5.48826C280.68 5.3305 280.778 5.107 280.818 4.81778H281.646C281.593 5.39623 281.403 5.84979 281.074 6.17846C280.759 6.49398 280.364 6.65174 279.891 6.65174C279.641 6.65174 279.424 6.6123 279.24 6.53342C279.069 6.4414 278.865 6.30993 278.629 6.13902C278.445 5.99441 278.28 5.88923 278.136 5.8235C278.004 5.75777 277.853 5.7249 277.682 5.7249C277.209 5.7249 276.933 6.0207 276.854 6.6123H276.006ZM302.655 21.5404C301.379 21.5404 300.223 21.2446 299.184 20.653C298.145 20.0482 297.324 19.2134 296.719 18.1485C296.127 17.0705 295.832 15.8544 295.832 14.5003C295.832 13.1462 296.127 11.9367 296.719 10.8718C297.324 9.7938 298.145 8.95899 299.184 8.36739C300.223 7.76264 301.379 7.46026 302.655 7.46026C303.943 7.46026 305.107 7.76264 306.145 8.36739C307.184 8.95899 307.999 9.7938 308.59 10.8718C309.182 11.9367 309.478 13.1462 309.478 14.5003C309.478 15.8544 309.182 17.0705 308.59 18.1485C307.999 19.2134 307.184 20.0482 306.145 20.653C305.107 21.2446 303.943 21.5404 302.655 21.5404ZM302.655 20.3375C303.68 20.3375 304.6 20.1008 305.415 19.6275C306.231 19.1543 306.875 18.4772 307.348 17.5964C307.821 16.7024 308.058 15.6704 308.058 14.5003C308.058 13.3303 307.821 12.3048 307.348 11.424C306.875 10.5432 306.231 9.86611 305.415 9.39283C304.6 8.91955 303.68 8.68291 302.655 8.68291C301.629 8.68291 300.709 8.91955 299.894 9.39283C299.079 9.86611 298.435 10.5432 297.961 11.424C297.488 12.3048 297.251 13.3303 297.251 14.5003C297.251 15.6704 297.488 16.7024 297.961 17.5964C298.435 18.4772 299.079 19.1543 299.894 19.6275C300.709 20.1008 301.629 20.3375 302.655 20.3375Z" fill="#141414"></path><path d="M21.5076 77.8844C23.2738 77.7042 24.4452 77.1635 25.0219 76.2625C25.5986 75.3253 25.5986 73.9196 25.0219 72.0454L22.6971 64.2059H10.2621L8.9645 69.0177C8.64011 70.2071 8.40583 71.2524 8.26165 72.1535C8.11748 73.0185 8.00935 73.7574 7.93726 74.3702C7.90122 74.9829 7.95528 75.5055 8.09946 75.9381C8.27967 76.3345 8.44187 76.6589 8.58604 76.9112C8.76626 77.1275 9.07263 77.3077 9.50515 77.4519C9.93767 77.5961 10.2981 77.6862 10.5865 77.7222C10.9108 77.7583 11.3974 77.8123 12.0462 77.8844H0.746585C1.93602 77.7763 2.85513 77.6141 3.50391 77.3978C4.18874 77.1816 4.83752 76.749 5.45026 76.1003C6.09904 75.4154 6.65772 74.4963 7.12628 73.3429C7.59485 72.1895 8.09946 70.5856 8.64011 68.5311L16.2633 40.7416C17.2004 40.7416 18.1556 40.9218 19.1288 41.2823C20.1019 41.6066 20.967 41.7688 21.7239 41.7688L30.2121 72.4238C30.897 74.5504 31.6899 75.9381 32.591 76.5868C33.4921 77.2356 35.0239 77.6682 37.1865 77.8844H21.5076ZM10.4243 63.7734H22.5889L16.2633 42.3636L10.4243 63.7734ZM142.601 85.6206C142.777 85.7086 142.865 85.8846 142.865 86.1486C142.865 86.3774 142.83 86.527 142.76 86.5974C140.93 89.1845 138.554 91.2524 135.632 92.8011C132.728 94.3499 129.525 95.1242 126.023 95.1242C123.858 95.1242 121.72 94.8867 119.608 94.4115C117.496 93.9363 115.525 93.2587 113.695 92.3787C111.882 91.4988 110.192 90.5748 108.626 89.6069C107.06 88.6389 105.528 87.5213 104.032 86.2542C102.537 84.987 101.278 83.8871 100.257 82.9543C99.2543 82.0215 98.1807 80.9832 97.0367 79.8392C95.9104 78.7128 95.1184 77.9385 94.6608 77.5161C93.7281 76.6713 92.8041 75.9849 91.8889 75.457C90.9914 74.9114 90.3226 74.5682 89.8826 74.4274C89.4602 74.269 89.0994 74.181 88.8002 74.1634C88.6419 74.1634 88.4923 74.1106 88.3515 74.005C88.2107 73.8818 88.1315 73.7146 88.1139 73.5034C88.1139 73.345 88.1667 73.1867 88.2723 73.0283C88.3779 72.8699 88.5187 72.7907 88.6947 72.7907C89.029 72.7203 89.4514 72.6235 89.9618 72.5003C90.4722 72.3595 91.3082 72.0691 92.4697 71.6291C93.6489 71.1715 94.8192 70.6347 95.9808 70.0188C97.1599 69.3852 98.5151 68.514 100.046 67.4053C101.577 66.2965 103.012 65.0645 104.349 63.7094C105.704 62.3366 107.077 60.6295 108.468 58.588C109.875 56.5289 111.107 54.3113 112.163 51.9354C114.293 47.0956 115.358 42.8454 115.358 39.1847C115.358 36.2808 114.671 33.7553 113.299 31.6082C110.43 33.8081 107.808 36.4304 105.432 39.4751C103.056 42.5022 100.601 46.1364 98.0663 50.3779C96.676 52.7186 95.5232 54.7161 94.608 56.3705C90.8594 63.0054 87.5771 68.514 84.7612 72.8963C81.9629 77.2609 79.455 80.7104 77.2375 83.2447C75.02 85.779 73.0752 87.6093 71.4033 88.7357C69.7313 89.862 67.9978 90.5924 66.2027 90.9268C65.2875 91.2084 64.3019 91.3492 63.246 91.3492C62.2252 91.3492 61.3013 91.2524 60.4741 91.0588C59.6645 90.8652 58.9957 90.6276 58.4678 90.346C57.9574 90.0644 57.5086 89.7212 57.1214 89.3165C56.7518 88.9117 56.4702 88.5333 56.2766 88.1813C56.083 87.8293 55.9335 87.4509 55.8279 87.0461C55.7223 86.6414 55.6607 86.3334 55.6431 86.1222C55.6255 85.911 55.6167 85.7086 55.6167 85.515C55.6167 85.3214 55.6783 85.1542 55.8015 85.0134C55.9423 84.8726 56.1182 84.8022 56.3294 84.8022C56.5054 84.8022 56.655 84.8726 56.7782 85.0134C56.9014 85.1542 56.963 85.3214 56.963 85.515C56.963 85.5854 56.9718 85.691 56.9894 85.8318C57.007 85.9726 57.0686 86.1926 57.1742 86.4918C57.2798 86.8086 57.4118 87.1165 57.5702 87.4157C57.7462 87.7149 58.0102 88.0229 58.3622 88.3397C58.7141 88.6741 59.1189 88.9557 59.5765 89.1845C60.3861 89.5893 61.3013 89.7916 62.322 89.7916C62.9908 89.7916 63.6772 89.6948 64.3811 89.5013C65.8419 89.1141 67.3378 88.2693 68.869 86.9669C70.4001 85.6646 72.3712 83.3855 74.7824 80.1296C77.2111 76.8737 80.0886 72.5003 83.4148 67.0093C84.2948 65.5661 85.8876 62.8558 88.1931 58.8784C90.4986 54.8833 91.8185 52.5866 92.1529 51.9882C92.5049 51.3194 92.9801 50.5011 93.5785 49.5331C94.1769 48.5476 95.1008 47.1044 96.3504 45.2037C97.6175 43.3029 99.1311 41.3142 100.891 39.2375C102.669 37.1608 104.481 35.304 106.329 33.6673C108.019 32.1889 109.805 30.869 111.688 29.7074C110.104 28.1763 108.089 26.9971 105.643 26.17C103.214 25.3252 100.574 24.9028 97.7231 24.9028C94.344 24.9028 90.9914 25.3692 87.6651 26.302C84.3388 27.2347 81.3821 28.4139 78.795 29.8394C76.2079 31.265 73.7264 32.9281 71.3505 34.8289C68.9922 36.712 67.021 38.5159 65.4371 40.2407C63.8532 41.9478 62.454 43.6637 61.2397 45.3885C59.9373 47.2364 58.7317 49.1107 57.623 51.0115C56.5142 52.8946 55.7311 54.3201 55.2735 55.2881L54.5871 56.7401L53.188 60.4095C52.9064 61.2015 52.7392 61.7295 52.6864 61.9935C52.0176 64.2462 51.6832 66.3493 51.6832 68.3028C51.6832 70.2036 52 71.7963 52.6336 73.0811C53.1616 74.225 54.0679 75.017 55.3527 75.457C55.9335 75.5978 56.6022 75.6682 57.359 75.6682C60.1749 75.6682 63.0876 74.3306 66.0971 71.6555C68.0154 69.966 69.7401 67.9508 71.2713 65.6101C72.8024 63.2694 74.052 60.8759 75.02 58.4296C75.4423 57.3208 75.7943 56.1329 76.0759 54.8657C76.3575 53.5986 76.5335 52.6042 76.6039 51.8826L76.7095 50.8003V50.5363C76.8327 49.4451 77.3343 48.8995 78.2142 48.8995C79.0062 48.9523 79.4022 49.4803 79.4022 50.4835V50.8003C79.4022 50.9059 79.367 51.0643 79.2966 51.2755C78.9798 52.613 78.487 54.1089 77.8183 55.7633C77.1671 57.4176 76.5951 58.7376 76.1023 59.7231L75.3631 61.1751C73.1104 65.9445 70.3297 69.7812 67.021 72.6851C63.4836 75.8354 59.9373 77.4105 56.3822 77.4105C56.0126 77.4105 55.6167 77.3841 55.1943 77.3313C52.2376 77.1729 50.1785 75.9849 49.0169 73.7674C48.2073 72.1307 47.7761 70.1332 47.7234 67.7748V67.0621C47.7234 66.3405 47.7585 65.5573 47.8289 64.7126C47.9169 63.8502 48.1457 62.6006 48.5153 60.9639C48.9025 59.3096 49.4041 57.6464 50.0201 55.9745C50.6536 54.2849 51.5952 52.3138 52.8448 50.0611C54.0943 47.7908 55.5551 45.5645 57.227 43.3821C57.5086 42.9774 57.887 42.4758 58.3622 41.8774C58.8373 41.2614 59.7261 40.2671 61.0285 38.8943C62.3308 37.5216 63.7212 36.2016 65.1995 34.9344C66.6779 33.6673 68.561 32.3033 70.8489 30.8426C73.1544 29.3643 75.5303 28.0971 77.9766 27.0411C80.423 25.9676 83.2653 25.07 86.5035 24.3484C89.7418 23.6269 93.0505 23.2661 96.4296 23.2661C97.4503 23.2661 98.6823 23.3277 100.125 23.4509C106.373 23.8733 110.984 25.5452 113.959 28.4667C117.074 26.9179 119.934 26.0732 122.538 25.9324H123.093C125.873 25.9324 128.003 26.6716 129.481 28.1499C130.432 29.1003 130.933 30.4466 130.986 32.1889V32.4265C130.933 32.7785 130.784 33.0601 130.537 33.2713C130.291 33.4649 129.992 33.5617 129.64 33.5617C129.376 33.5089 129.164 33.3681 129.006 33.1393C128.848 32.8929 128.768 32.6113 128.768 32.2945V32.0834C128.839 31.8194 128.874 31.5114 128.874 31.1594C128.874 29.6106 128.135 28.5371 126.656 27.9387C125.618 27.5691 124.553 27.3843 123.462 27.3843C122.881 27.3843 122.301 27.4283 121.72 27.5163C121.139 27.5867 120.699 27.6659 120.4 27.7539L119.951 27.8859C118.438 28.3963 116.942 29.1355 115.463 30.1034L116.123 31.001C118.218 34.0809 119.265 37.548 119.265 41.4022C119.265 44.6405 118.446 48.2044 116.81 52.0938C115.947 54.0825 114.935 55.9657 113.774 57.7432C112.612 59.5207 111.433 61.0695 110.236 62.3894C109.04 63.6918 107.746 64.9062 106.356 66.0325C104.965 67.1589 103.654 68.1092 102.422 68.8836C101.19 69.6404 99.9142 70.3356 98.5943 70.9691C97.2743 71.6027 96.1216 72.1043 95.136 72.4739C94.1681 72.8259 93.2001 73.1339 92.2321 73.3978C94.6608 74.225 97.7231 76.1345 101.419 79.1264C103.443 80.7632 105.053 82.0391 106.25 82.9543C107.447 83.8871 108.855 84.8902 110.474 85.9638C112.111 87.0549 113.589 87.8909 114.909 88.4717C116.229 89.0701 117.725 89.6069 119.397 90.082C121.069 90.5748 122.837 90.9268 124.703 91.138C125.741 91.2436 126.753 91.2964 127.739 91.2964C130.766 91.2964 133.529 90.8124 136.028 89.8444C138.527 88.8941 140.41 87.5389 141.678 85.779C141.854 85.603 142.056 85.515 142.285 85.515C142.355 85.515 142.461 85.5502 142.601 85.6206ZM138.342 77.4519C139.639 77.4519 140.793 77.2356 141.802 76.8031C142.847 76.3345 143.64 75.7939 144.181 75.1812C144.757 74.5684 145.226 73.8656 145.586 73.0726C145.983 72.2796 146.253 71.5948 146.397 71.0181C146.542 70.4414 146.614 69.9008 146.614 69.3962L146.56 77.8844H123.744C124.465 77.8123 125.024 77.7222 125.42 77.6141C125.817 77.4699 126.213 77.2356 126.61 76.9112C127.006 76.5508 127.294 76.0282 127.475 75.3433C127.655 74.6585 127.745 73.7935 127.745 72.7482V45.9319C127.745 44.8506 127.655 43.9855 127.475 43.3367C127.294 42.6519 127.006 42.1473 126.61 41.8229C126.213 41.4625 125.817 41.2282 125.42 41.1201C125.024 40.9759 124.465 40.8497 123.744 40.7416H146.56L146.614 49.2298C146.614 48.7613 146.542 48.2386 146.397 47.662C146.253 47.0492 145.983 46.3644 145.586 45.6075C145.226 44.8145 144.757 44.1117 144.181 43.4989C143.64 42.8501 142.847 42.3095 141.802 41.877C140.793 41.4444 139.639 41.2282 138.342 41.2282H134.341C133.332 41.2282 132.719 41.5165 132.503 42.0932C132.286 42.6699 132.178 43.9314 132.178 45.8778V58.3669C134.629 58.2948 136.431 58.0965 137.585 57.7721C138.774 57.4478 139.621 56.9251 140.126 56.2043C140.63 55.4834 140.955 54.348 141.099 52.7981V64.2059C140.955 62.6921 140.63 61.5747 140.126 60.8539C139.621 60.097 138.774 59.5563 137.585 59.2319C136.431 58.9075 134.629 58.7273 132.178 58.6913V72.8023C132.178 74.7486 132.286 76.0102 132.503 76.5868C132.719 77.1635 133.332 77.4519 134.341 77.4519H138.342ZM167.38 77.8844C169.146 77.7042 170.318 77.1635 170.894 76.2625C171.471 75.3253 171.471 73.9196 170.894 72.0454L168.57 64.2059H156.135L154.837 69.0177C154.513 70.2071 154.278 71.2524 154.134 72.1535C153.99 73.0185 153.882 73.7574 153.81 74.3702C153.774 74.9829 153.828 75.5055 153.972 75.9381C154.152 76.3345 154.314 76.6589 154.459 76.9112C154.639 77.1275 154.945 77.3077 155.378 77.4519C155.81 77.5961 156.171 77.6862 156.459 77.7222C156.783 77.7583 157.27 77.8123 157.919 77.8844H146.619C147.809 77.7763 148.728 77.6141 149.377 77.3978C150.061 77.1816 150.71 76.749 151.323 76.1003C151.972 75.4154 152.53 74.4963 152.999 73.3429C153.467 72.1895 153.972 70.5856 154.513 68.5311L162.136 40.7416C163.073 40.7416 164.028 40.9218 165.001 41.2823C165.975 41.6066 166.84 41.7688 167.597 41.7688L176.085 72.4238C176.77 74.5504 177.563 75.9381 178.464 76.5868C179.365 77.2356 180.897 77.6682 183.059 77.8844H167.38ZM156.297 63.7734H168.462L162.136 42.3636L156.297 63.7734ZM193.511 66.5848H190.43V72.8023C190.43 73.8475 190.52 74.7126 190.7 75.3974C190.88 76.0462 191.169 76.5508 191.565 76.9112C191.998 77.2356 192.394 77.4699 192.755 77.6141C193.151 77.7222 193.71 77.8303 194.431 77.9385H181.996C182.716 77.8303 183.275 77.7222 183.672 77.6141C184.068 77.4699 184.465 77.2356 184.861 76.9112C185.258 76.5508 185.546 76.0462 185.726 75.3974C185.906 74.7126 185.996 73.8475 185.996 72.8023V45.9319C185.996 44.8506 185.906 43.9855 185.726 43.3367C185.546 42.6519 185.258 42.1473 184.861 41.8229C184.465 41.4625 184.068 41.2282 183.672 41.1201C183.275 40.9759 182.716 40.8497 181.996 40.7416H193.511C195.35 40.7416 197.044 41.048 198.594 41.6607C200.18 42.2374 201.459 43.0304 202.432 44.0396C203.441 45.0128 204.288 46.1481 204.973 47.4457C205.694 48.7433 206.127 50.1129 206.271 51.5546C206.415 52.9603 206.415 54.3841 206.271 55.8258C206.127 57.2315 205.694 58.5831 204.973 59.8807C204.288 61.1783 203.441 62.3316 202.432 63.3409C201.423 64.314 200.143 65.107 198.594 65.7197C197.044 66.2964 195.35 66.5848 193.511 66.5848ZM190.43 45.7156V66.0982H193.511C194.953 66.0982 196.251 65.6476 197.404 64.7466C198.558 63.8094 199.441 62.62 200.053 61.1783C200.666 59.7005 201.117 58.0785 201.405 56.3124C201.729 54.5463 201.765 52.7801 201.513 51.014C201.261 49.2479 200.846 47.6439 200.27 46.2022C199.729 44.7244 198.882 43.535 197.729 42.6339C196.611 41.6968 195.314 41.2282 193.836 41.2282H193.403C192.25 41.2282 191.457 41.5165 191.024 42.0932C190.628 42.6339 190.43 43.8413 190.43 45.7156ZM228.913 71.6128C229.238 72.0814 229.652 72.7302 230.157 73.5592C230.661 74.3521 231.04 74.9288 231.292 75.2893C231.544 75.6497 231.869 76.0642 232.265 76.5328C232.662 77.0013 233.058 77.3438 233.455 77.56C233.887 77.7402 234.374 77.8664 234.914 77.9385H228.967C228.319 77.9385 227.886 77.8844 227.67 77.7763C227.49 77.6682 227.201 77.2897 226.805 76.6409L219.019 64.2059C218.983 64.2059 218.929 64.2059 218.857 64.2059C218.821 64.2059 218.785 64.2059 218.749 64.2059H215.667V72.8023C215.667 73.8475 215.757 74.7126 215.938 75.3974C216.118 76.0462 216.406 76.5508 216.803 76.9112C217.235 77.2356 217.632 77.4699 217.992 77.6141C218.389 77.7222 218.947 77.8303 219.668 77.9385H207.233C207.954 77.8303 208.513 77.7222 208.909 77.6141C209.306 77.4699 209.702 77.2356 210.099 76.9112C210.495 76.5508 210.783 76.0462 210.964 75.3974C211.144 74.7126 211.234 73.8475 211.234 72.8023V45.9319C211.234 44.8506 211.144 43.9855 210.964 43.3367C210.783 42.6519 210.495 42.1473 210.099 41.8229C209.702 41.4625 209.306 41.2282 208.909 41.1201C208.513 40.9759 207.954 40.8497 207.233 40.7416H218.749C220.695 40.7416 222.461 41.0299 224.047 41.6066C225.633 42.1833 226.931 42.9583 227.94 43.9315C228.985 44.9046 229.814 46.022 230.427 47.2835C231.076 48.545 231.472 49.8606 231.616 51.2303C231.761 52.5639 231.653 53.9155 231.292 55.2851C230.968 56.6188 230.427 57.8623 229.67 59.0156C228.913 60.169 227.886 61.1783 226.588 62.0433C225.291 62.9083 223.813 63.5211 222.155 63.8815C223.2 63.9896 224.011 64.4402 224.588 65.2331L228.913 71.6128ZM218.749 63.7193C220.191 63.7193 221.488 63.3048 222.642 62.4758C223.795 61.6468 224.678 60.5835 225.291 59.286C225.904 57.9524 226.354 56.4926 226.642 54.9067C226.967 53.2847 227.003 51.6808 226.751 50.0949C226.498 48.509 226.084 47.0492 225.507 45.7156C224.966 44.382 224.119 43.3007 222.966 42.4717C221.849 41.6427 220.551 41.2282 219.073 41.2282H218.641C217.487 41.2282 216.694 41.5165 216.262 42.0932C215.865 42.6339 215.667 43.8413 215.667 45.7156V63.7193H218.749ZM243.766 41.6066C245.568 40.4893 247.587 39.9306 249.821 39.9306C252.056 39.9306 254.074 40.4893 255.877 41.6066C257.715 42.6879 259.175 44.1477 260.256 45.9859C261.373 47.7881 262.238 49.8606 262.851 52.2034C263.464 54.5102 263.77 56.8711 263.77 59.286C263.77 61.7009 263.464 64.0798 262.851 66.4226C262.238 68.7294 261.373 70.8019 260.256 72.6401C259.175 74.4423 257.715 75.902 255.877 77.0194C254.074 78.1367 252.056 78.6954 249.821 78.6954C247.587 78.6954 245.568 78.1367 243.766 77.0194C241.964 75.902 240.504 74.4423 239.387 72.6401C238.269 70.8019 237.404 68.7294 236.792 66.4226C236.215 64.0798 235.927 61.7009 235.927 59.286C235.927 56.8711 236.215 54.5102 236.792 52.2034C237.404 49.8606 238.269 47.7881 239.387 45.9859C240.504 44.1477 241.964 42.6879 243.766 41.6066ZM249.821 78.3169C251.479 78.3169 252.939 77.6141 254.201 76.2084C255.498 74.8027 256.471 72.9825 257.12 70.7478C257.769 68.5131 258.237 66.0441 258.526 63.3409C258.814 60.6376 258.796 57.9343 258.472 55.2311C258.147 52.5278 257.643 50.0588 256.958 47.8241C256.309 45.5894 255.354 43.7873 254.092 42.4176C252.831 41.0119 251.407 40.3091 249.821 40.3091C248.452 40.3091 247.19 40.8497 246.037 41.931C244.883 43.0123 243.946 44.4541 243.225 46.2563C242.504 48.0224 241.946 50.0408 241.549 52.3116C241.153 54.5823 240.937 56.9071 240.901 59.286C240.901 61.6648 241.081 64.0077 241.441 66.3145C241.838 68.5852 242.378 70.6036 243.063 72.3698C243.784 74.1359 244.721 75.5776 245.875 76.695C247.064 77.7763 248.38 78.3169 249.821 78.3169ZM279.528 77.9385C281.114 77.9385 282.087 77.4519 282.448 76.4787C282.808 75.5055 282.61 74.3341 281.853 72.9645L275.581 60.7457L269.364 72.9645C268.571 74.3341 268.355 75.5055 268.715 76.4787C269.075 77.4519 270.067 77.9385 271.689 77.9385H261.2C263.146 77.9385 264.732 77.4699 265.958 76.5328C267.219 75.5596 268.336 74.0097 269.31 71.8832L275.311 60.151L269.039 47.8241C267.706 45.2651 266.444 43.4449 265.255 42.3636C264.101 41.2823 262.515 40.7416 260.497 40.7416H275.365C274.428 40.7416 273.707 40.9038 273.202 41.2282C272.698 41.5165 272.427 41.9671 272.391 42.5798C272.355 43.1926 272.427 43.8594 272.608 44.5802C272.788 45.2651 273.112 46.0941 273.581 47.0672L278.122 55.988L282.664 47.0672C283.132 46.0941 283.457 45.2651 283.637 44.5802C283.853 43.8594 283.925 43.1926 283.853 42.5798C283.817 41.9671 283.547 41.5165 283.042 41.2282C282.538 40.9038 281.817 40.7416 280.88 40.7416H291.368C289.386 40.7416 287.8 41.2823 286.611 42.3636C285.421 43.4449 284.178 45.2651 282.88 47.8241L278.393 56.5286L286.286 71.8832C287.259 74.0097 288.359 75.5596 289.584 76.5328C290.846 77.4699 292.45 77.9385 294.396 77.9385H279.528ZM301.095 72.8023C301.095 73.8475 301.185 74.7126 301.365 75.3974C301.545 76.0462 301.833 76.5508 302.23 76.9112C302.662 77.2356 303.077 77.4699 303.473 77.6141C303.87 77.7222 304.411 77.8303 305.095 77.9385H292.66C293.381 77.8303 293.94 77.7222 294.336 77.6141C294.733 77.4699 295.129 77.2356 295.526 76.9112C295.922 76.5508 296.211 76.0462 296.391 75.3974C296.571 74.7126 296.661 73.8475 296.661 72.8023V45.9319C296.661 44.8506 296.571 43.9855 296.391 43.3367C296.211 42.6519 295.922 42.1473 295.526 41.8229C295.129 41.4625 294.733 41.2282 294.336 41.1201C293.94 40.9759 293.381 40.8497 292.66 40.7416H305.095C304.411 40.8497 303.87 40.9759 303.473 41.1201C303.077 41.2282 302.662 41.4625 302.23 41.8229C301.833 42.1473 301.545 42.6519 301.365 43.3367C301.185 44.0216 301.095 44.8866 301.095 45.9319V72.8023ZM335.311 45.9319V72.8023C335.311 73.8475 335.384 74.7126 335.528 75.3974C335.708 76.0462 335.996 76.5508 336.393 76.9112C336.825 77.2356 337.24 77.4699 337.636 77.6141C338.033 77.7222 338.591 77.8303 339.312 77.9385H327.256C328.157 77.8303 328.824 77.6682 329.256 77.4519C329.725 77.1996 330.103 76.713 330.392 75.9921C330.68 75.2713 330.824 74.208 330.824 72.8023V47.716L321.795 77.9385H320.011L310.928 45.7697V70.1531C310.928 72.3157 311.289 74.1179 312.009 75.5596C312.766 77.0013 313.721 77.7943 314.875 77.9385H306.495C307.684 77.7943 308.639 77.0013 309.36 75.5596C310.117 74.1179 310.496 72.3157 310.496 70.1531V45.9319C310.496 44.8866 310.405 44.0216 310.225 43.3367C310.045 42.6519 309.739 42.1473 309.306 41.8229C308.91 41.4625 308.513 41.2282 308.117 41.1201C307.72 40.9759 307.18 40.8497 306.495 40.7416H314.172L322.931 71.8291L332.23 40.7416H339.312C338.591 40.8497 338.033 40.9759 337.636 41.1201C337.24 41.2282 336.825 41.4625 336.393 41.8229C335.996 42.1473 335.708 42.6519 335.528 43.3367C335.384 43.9855 335.311 44.8506 335.311 45.9319ZM359.037 77.8844C360.803 77.7042 361.975 77.1635 362.551 76.2625C363.128 75.3253 363.128 73.9196 362.551 72.0454L360.227 64.2059H347.792L346.494 69.0177C346.17 70.2071 345.935 71.2524 345.791 72.1535C345.647 73.0185 345.539 73.7574 345.467 74.3702C345.431 74.9829 345.485 75.5055 345.629 75.9381C345.809 76.3345 345.971 76.6589 346.116 76.9112C346.296 77.1275 346.602 77.3077 347.035 77.4519C347.467 77.5961 347.828 77.6862 348.116 77.7222C348.44 77.7583 348.927 77.8123 349.576 77.8844H338.276C339.466 77.7763 340.385 77.6141 341.034 77.3978C341.718 77.1816 342.367 76.749 342.98 76.1003C343.629 75.4154 344.187 74.4963 344.656 73.3429C345.124 72.1895 345.629 70.5856 346.17 68.5311L353.793 40.7416C354.73 40.7416 355.685 40.9218 356.658 41.2823C357.632 41.6066 358.497 41.7688 359.253 41.7688L367.742 72.4238C368.427 74.5504 369.22 75.9381 370.121 76.5868C371.022 77.2356 372.554 77.6682 374.716 77.8844H359.037ZM347.954 63.7734H360.119L353.793 42.3636L347.954 63.7734ZM398.816 66.9092C397.987 70.5496 396.581 73.379 394.599 75.3974C392.617 77.4158 390.256 78.5152 387.517 78.6954L387.3 79.182C388.021 79.182 388.634 79.4163 389.138 79.8848C389.643 80.4255 389.913 81.0562 389.949 81.7771C389.986 82.6422 389.697 83.381 389.084 83.9938C388.436 84.6065 387.679 84.8949 386.814 84.8588C386.129 84.8588 385.516 84.6966 384.975 84.3722C384.435 84.0478 384.038 83.6694 383.786 83.2369C383.498 82.8043 383.354 82.4259 383.354 82.1015H385.516C385.516 82.5701 385.696 82.9305 386.057 83.1828C386.417 83.4712 386.832 83.6153 387.3 83.6153C387.769 83.6153 388.165 83.4171 388.49 83.0206C388.814 82.6241 388.976 82.1195 388.976 81.5068C388.94 80.7859 388.634 80.2092 388.057 79.7767C387.444 79.3802 386.796 79.3081 386.111 79.5604L386.489 78.6954C384.327 78.6233 382.326 78.1367 380.488 77.2356C378.686 76.2985 377.208 75.073 376.055 73.5592C374.901 72.0454 373.91 70.3153 373.081 68.3689C372.252 66.4226 371.748 64.3861 371.567 62.2596C371.423 60.097 371.423 57.9524 371.567 55.8258C371.748 53.6992 372.234 51.6808 373.027 49.7705C373.856 47.8241 374.847 46.1121 376.001 44.6343C377.154 43.1205 378.614 41.931 380.38 41.066C382.182 40.2009 384.146 39.7684 386.273 39.7684C387.607 39.7684 388.832 39.8946 389.949 40.1469C391.103 40.3992 392.166 40.8317 393.139 41.4444C394.112 42.0211 394.815 42.4717 395.248 42.7961C395.68 43.0844 396.329 43.6071 397.194 44.364L394.437 54.2579C395.086 50.4373 394.527 47.1754 392.761 44.4721C390.995 41.7688 388.814 40.4172 386.219 40.4172C383.732 40.4172 381.623 41.6787 379.893 44.2018C378.199 46.7248 377.154 49.8065 376.758 53.4469C376.361 57.0513 376.379 60.6556 376.812 64.26C377.28 67.8643 378.47 70.946 380.38 73.5051C382.29 76.0282 384.669 77.2897 387.517 77.2897C390.256 77.2897 392.527 76.5148 394.329 74.9649C396.131 73.415 397.627 70.7298 398.816 66.9092ZM417.486 77.8844C419.252 77.7042 420.424 77.1635 421 76.2625C421.577 75.3253 421.577 73.9196 421 72.0454L418.675 64.2059H406.24L404.943 69.0177C404.618 70.2071 404.384 71.2344 404.24 72.0994C404.096 72.9645 403.988 73.7214 403.916 74.3702C403.88 74.9829 403.934 75.5055 404.078 75.9381C404.258 76.3345 404.42 76.6589 404.564 76.9112C404.745 77.1275 405.051 77.3077 405.484 77.4519C405.916 77.5961 406.276 77.6862 406.565 77.7222C406.889 77.7583 407.376 77.8123 408.025 77.8844H396.725C397.914 77.7763 398.833 77.6141 399.482 77.3978C400.167 77.1816 400.816 76.749 401.429 76.1003C402.077 75.4154 402.636 74.4963 403.105 73.3429C403.573 72.1895 404.078 70.5856 404.618 68.5311L412.242 40.7416C413.179 40.7416 414.134 40.9038 415.107 41.2282C416.08 41.5526 416.945 41.7148 417.702 41.7148L426.19 72.4238C426.875 74.5504 427.668 75.9381 428.569 76.5868C429.47 77.1996 431.002 77.6321 433.165 77.8844H417.486ZM406.403 63.7734H418.567L412.242 42.3636L406.403 63.7734ZM417.108 34.47C416.423 34.5061 415.359 34.3078 413.918 33.8753C412.476 33.4068 411.305 33.1725 410.403 33.1725C409.322 33.2085 408.295 33.623 407.322 34.416C407.61 33.4068 408.097 32.5958 408.781 31.983C409.466 31.3343 410.223 31.0099 411.052 31.0099C411.953 31.0099 413.053 31.2261 414.35 31.6586C415.684 32.0912 416.603 32.3074 417.108 32.3074C417.864 32.3074 418.513 32.2173 419.054 32.0371C419.631 31.8569 420.027 31.6767 420.243 31.4964L420.514 31.2261C420.406 31.4424 420.243 31.7307 420.027 32.0912C419.847 32.4156 419.45 32.8841 418.838 33.4969C418.261 34.1096 417.684 34.434 417.108 34.47ZM437.799 41.6066C439.601 40.4893 441.619 39.9306 443.854 39.9306C446.089 39.9306 448.107 40.4893 449.909 41.6066C451.748 42.6879 453.207 44.1477 454.289 45.9859C455.406 47.7881 456.271 49.8606 456.884 52.2034C457.497 54.5102 457.803 56.8711 457.803 59.286C457.803 61.7009 457.497 64.0798 456.884 66.4226C456.271 68.7294 455.406 70.8019 454.289 72.6401C453.207 74.4423 451.748 75.902 449.909 77.0194C448.107 78.1367 446.089 78.6954 443.854 78.6954C441.619 78.6954 439.601 78.1367 437.799 77.0194C435.997 75.902 434.537 74.4423 433.42 72.6401C432.302 70.8019 431.437 68.7294 430.824 66.4226C430.248 64.0798 429.959 61.7009 429.959 59.286C429.959 56.8711 430.248 54.5102 430.824 52.2034C431.437 49.8606 432.302 47.7881 433.42 45.9859C434.537 44.1477 435.997 42.6879 437.799 41.6066ZM443.854 78.3169C445.512 78.3169 446.972 77.6141 448.233 76.2084C449.531 74.8027 450.504 72.9825 451.153 70.7478C451.802 68.5131 452.27 66.0441 452.559 63.3409C452.847 60.6376 452.829 57.9343 452.505 55.2311C452.18 52.5278 451.676 50.0588 450.991 47.8241C450.342 45.5894 449.387 43.7873 448.125 42.4176C446.864 41.0119 445.44 40.3091 443.854 40.3091C442.485 40.3091 441.223 40.8497 440.07 41.931C438.916 43.0123 437.979 44.4541 437.258 46.2563C436.537 48.0224 435.979 50.0408 435.582 52.3116C435.186 54.5823 434.969 56.9071 434.933 59.286C434.933 61.6648 435.114 64.0077 435.474 66.3145C435.871 68.5852 436.411 70.6036 437.096 72.3698C437.817 74.1359 438.754 75.5776 439.907 76.695C441.097 77.7763 442.412 78.3169 443.854 78.3169Z" fill="#980014"></path></svg>