<svg xmlns="http://www.w3.org/2000/svg" width="257" height="29" viewBox="0 0 257 29" fill="none"><path d="M35.976 24.4206C36.0578 24.4615 36.0783 24.5433 36.0783 24.6251C36.0783 24.6865 36.0783 24.7479 36.0374 24.7888C34.7078 26.6706 32.4373 28.0207 29.6963 28.0207C23.7235 28.0207 19.6734 23.0092 17.8324 21.3523C16.6665 20.2887 15.8483 20.1046 15.6233 20.0841C15.5005 20.0841 15.3778 20.0023 15.3574 19.8386C15.3574 19.7364 15.4392 19.5727 15.5824 19.5727C16.0119 19.4909 21.5552 18.2841 24.4598 11.6771C25.2576 9.8566 25.6667 8.24065 25.6667 6.84971C25.6667 5.74514 25.4008 4.78376 24.8894 3.98601C22.5371 5.78605 20.7984 8.28156 19.1211 11.0839C18.6915 11.7998 18.262 12.5362 17.812 13.3544C12.0845 23.5001 9.62995 25.9342 7.07307 26.4252C6.68442 26.5479 6.29578 26.5888 5.94804 26.5888C3.14571 26.5888 3.06389 24.7069 3.06389 24.3797C3.06389 24.2365 3.16616 24.1137 3.3298 24.1137C3.47299 24.1137 3.57526 24.2365 3.57526 24.3797C3.57526 24.4206 3.61617 25.3206 4.5571 25.7706C4.63892 25.8115 5.02757 25.9956 5.60031 25.9956C5.82531 25.9956 6.09123 25.9752 6.3776 25.8933C7.91172 25.4842 9.69131 23.8069 13.5778 17.384C14.3346 16.1363 16.7278 11.9839 16.8915 11.6976C17.1165 11.268 19.2029 7.46336 22.2507 4.7633C22.9462 4.14965 23.6416 3.65873 24.2757 3.27008C23.0689 2.10415 21.1461 1.44959 18.9983 1.44959C12.2891 1.44959 7.27762 6.23606 5.19121 9.20204C3.53435 11.5544 2.67524 13.4976 2.67524 13.4976L2.14341 14.8885C2.06159 15.1135 2.00023 15.2976 1.95932 15.4817C1.71385 16.3204 1.57067 17.1386 1.57067 17.875C1.57067 18.55 1.6934 19.1636 1.93886 19.675C2.1025 20.0227 2.42978 20.3909 2.96161 20.575C3.20707 20.6364 3.47299 20.6568 3.71845 20.6568C4.84347 20.6568 5.9685 20.0841 7.03216 19.1432C8.56629 17.7931 9.73222 15.8499 10.4072 14.1317C10.9595 12.7203 11.0413 11.2475 11.0413 11.2475V11.1453C11.0823 10.7975 11.2459 10.5316 11.6141 10.5316C11.9005 10.5521 12.0641 10.7566 12.0641 11.1248V11.2475C12.0641 11.3089 12.0436 11.3703 12.0232 11.4316C11.6141 13.1499 10.53 15.1749 10.53 15.1749C9.79359 16.7295 8.72993 18.3454 7.37989 19.5318C6.11168 20.6568 4.7412 21.3114 3.35026 21.3114C3.20707 21.3114 3.06389 21.3114 2.90025 21.291C1.77522 21.2296 0.997929 20.7591 0.568374 19.9409C0.261549 19.3068 0.0979086 18.5295 0.0774536 17.6704C0.0774536 17.6704 0.0774536 17.5681 0.0774536 17.4045C0.0774536 16.4227 0.322914 12.8226 3.67754 8.4452C3.98436 7.99519 9.13903 0.835938 18.5074 0.835938C18.9574 0.835938 19.4279 0.856393 19.8984 0.897303C22.5371 1.0814 24.1121 1.79732 25.1348 2.79962C26.7917 1.98142 28.0395 1.85869 28.3872 1.83823H28.5917C29.7577 1.83823 30.4941 2.16551 31.0054 2.67689C31.3941 3.06553 31.5577 3.63828 31.5782 4.21102V4.29283C31.5373 4.55875 31.3327 4.72239 31.0668 4.72239C30.8623 4.68148 30.7395 4.47693 30.7395 4.25192V4.1701C30.7395 4.1701 30.7804 4.02692 30.7804 3.82237C30.7804 3.45418 30.6577 2.88144 29.9418 2.59507C29.5531 2.45188 29.1236 2.39052 28.7349 2.39052C27.9985 2.39052 27.4054 2.57461 27.4054 2.57461C26.9349 2.73825 26.3622 2.98371 25.7076 3.41327L25.9531 3.761C26.669 4.82467 27.1394 6.13379 27.1394 7.68837C27.1394 8.89521 26.8531 10.2452 26.219 11.7385C23.8462 17.2204 19.162 19.1636 16.9119 19.7977C17.6483 20.0432 18.7529 20.6364 20.3893 21.966C23.6007 24.5842 25.6053 26.0979 29.2054 26.507C29.594 26.5479 29.9827 26.5683 30.3509 26.5683C32.5805 26.5683 34.6464 25.8524 35.6283 24.4819C35.6896 24.4206 35.7715 24.3797 35.8533 24.3797C35.8942 24.3797 35.9351 24.4001 35.976 24.4206Z" fill="white"></path><path d="M38.8621 8.38384V13.7226H44.2827V14.909H38.8621V20.3296H44.8963V21.516H37.4302V7.19745H44.8963V8.38384H38.8621Z" fill="white"></path><path d="M62.2816 21.6591C61.3407 21.6591 60.5089 21.4955 59.7861 21.1682C59.077 20.8409 58.5179 20.3841 58.1088 19.7977C57.6997 19.2114 57.4815 18.5568 57.4543 17.8341H58.9679C59.0361 18.5295 59.3429 19.1432 59.8884 19.675C60.4339 20.1932 61.2316 20.4523 62.2816 20.4523C63.2498 20.4523 64.0135 20.2068 64.5726 19.7159C65.1453 19.2114 65.4317 18.5773 65.4317 17.8136C65.4317 17.2 65.2749 16.709 64.9612 16.3408C64.6476 15.959 64.259 15.6795 63.7953 15.5022C63.3317 15.3113 62.6907 15.1067 61.8725 14.8885C60.918 14.6294 60.1611 14.3772 59.602 14.1317C59.0429 13.8862 58.5656 13.5044 58.1702 12.9862C57.7747 12.468 57.577 11.7657 57.577 10.8793C57.577 10.143 57.7679 9.48841 58.1497 8.91567C58.5315 8.32929 59.0702 7.87246 59.7657 7.54518C60.4611 7.2179 61.2589 7.05426 62.1589 7.05426C63.4817 7.05426 64.5453 7.38154 65.3499 8.0361C66.1681 8.67703 66.6386 9.50886 66.7613 10.5316H65.2067C65.1112 9.94524 64.7908 9.42704 64.2453 8.97703C63.6998 8.51339 62.9635 8.28156 62.0362 8.28156C61.1771 8.28156 60.4611 8.51339 59.8884 8.97703C59.3157 9.42704 59.0293 10.0475 59.0293 10.8384C59.0293 11.4385 59.1861 11.9226 59.4998 12.2907C59.8134 12.6589 60.202 12.9385 60.6657 13.1294C61.143 13.3203 61.7839 13.5249 62.5885 13.7431C63.5158 14.0021 64.2658 14.2612 64.8385 14.5203C65.4112 14.7658 65.8954 15.1476 66.2908 15.6658C66.6863 16.184 66.884 16.8795 66.884 17.7522C66.884 18.4204 66.7067 19.0545 66.3522 19.6546C65.9976 20.2546 65.4726 20.7387 64.7771 21.1069C64.0817 21.475 63.2498 21.6591 62.2816 21.6591Z" fill="white"></path><path d="M88.2445 7.2179V8.40429H84.2762V21.516H82.8444V8.40429H78.8556V7.2179H88.2445Z" fill="white"></path><path d="M109.017 18.1204H102.512L101.265 21.516H99.7511L104.967 7.402H106.583L111.779 21.516H110.265L109.017 18.1204ZM108.588 16.934L105.765 9.20204L102.942 16.934H108.588Z" fill="white"></path><path d="M125.675 7.2179V16.2181C125.675 17.6363 126.009 18.6863 126.677 19.3682C127.359 20.05 128.286 20.3909 129.459 20.3909C130.632 20.3909 131.545 20.0568 132.2 19.3886C132.868 18.7068 133.202 17.65 133.202 16.2181V7.2179H134.634V16.1977C134.634 18.0113 134.15 19.375 133.182 20.2887C132.227 21.2023 130.979 21.6591 129.438 21.6591C127.897 21.6591 126.643 21.2023 125.675 20.2887C124.72 19.375 124.243 18.0113 124.243 16.1977V7.2179H125.675Z" fill="white"></path><path d="M155.664 21.516L152.126 15.5431H149.487V21.516H148.055V7.2179H152.351C153.946 7.2179 155.153 7.59973 155.971 8.36338C156.803 9.12704 157.219 10.1293 157.219 11.3703C157.219 12.4067 156.919 13.293 156.319 14.0294C155.733 14.7522 154.86 15.2226 153.701 15.4408L157.383 21.516H155.664ZM149.487 14.3772H152.371C153.489 14.3772 154.328 14.1044 154.887 13.559C155.46 13.0135 155.746 12.2839 155.746 11.3703C155.746 10.4293 155.473 9.7066 154.928 9.20204C154.383 8.68385 153.523 8.42475 152.351 8.42475H149.487V14.3772Z" fill="white"></path><path d="M178.572 18.1204H172.068L170.82 21.516H169.306L174.522 7.402H176.138L181.334 21.516H179.82L178.572 18.1204ZM178.143 16.934L175.32 9.20204L172.497 16.934H178.143Z" fill="white"></path><path d="M200.2 20.3909C201.387 20.3909 202.396 20.125 203.228 19.5932C204.073 19.0477 204.7 18.2977 205.109 17.3431H206.787C206.309 18.5977 205.559 19.6 204.537 20.35C203.528 21.0864 202.321 21.5091 200.916 21.6182V22.8864C201.721 22.8592 202.355 23.0092 202.818 23.3365C203.296 23.6774 203.534 24.1615 203.534 24.7888C203.534 25.4024 203.316 25.8865 202.88 26.2411C202.443 26.6093 201.864 26.7934 201.141 26.7934H199.096V25.832H200.855C201.359 25.832 201.728 25.7433 201.959 25.5661C202.205 25.4024 202.328 25.1433 202.328 24.7888C202.328 24.1342 201.837 23.8069 200.855 23.8069H199.914V21.6387C198.646 21.5978 197.5 21.2637 196.477 20.6364C195.455 19.9955 194.65 19.1364 194.064 18.0591C193.491 16.9681 193.205 15.734 193.205 14.3567C193.205 12.9521 193.511 11.6976 194.125 10.593C194.739 9.47477 195.577 8.60884 196.641 7.99519C197.705 7.36791 198.891 7.05426 200.2 7.05426C201.796 7.05426 203.159 7.43609 204.291 8.19974C205.437 8.94976 206.269 10.0134 206.787 11.3907H205.109C204.7 10.4225 204.073 9.66569 203.228 9.12022C202.396 8.57475 201.387 8.30202 200.2 8.30202C199.15 8.30202 198.202 8.54748 197.357 9.0384C196.525 9.52932 195.871 10.2384 195.393 11.1657C194.916 12.0794 194.677 13.143 194.677 14.3567C194.677 15.5704 194.916 16.634 195.393 17.5477C195.871 18.4613 196.525 19.1636 197.357 19.6546C198.202 20.1455 199.15 20.3909 200.2 20.3909Z" fill="white"></path><path d="M228.152 18.1204H221.647L220.399 21.516H218.886L224.102 7.402H225.718L230.913 21.516H229.399L228.152 18.1204ZM227.722 16.934L224.899 9.20204L222.077 16.934H227.722ZM222.22 6.1747C222.302 5.56105 222.499 5.09058 222.813 4.7633C223.127 4.43602 223.529 4.27238 224.02 4.27238C224.265 4.27238 224.477 4.32011 224.654 4.41557C224.831 4.49739 225.043 4.62012 225.288 4.78376C225.493 4.93376 225.67 5.04967 225.82 5.13149C225.97 5.19967 226.133 5.23377 226.311 5.23377C226.543 5.23377 226.74 5.15876 226.904 5.00876C227.068 4.84512 227.17 4.6133 227.211 4.31329H228.07C228.015 4.9133 227.818 5.38377 227.477 5.72469C227.149 6.05197 226.74 6.21561 226.249 6.21561C225.99 6.21561 225.765 6.1747 225.574 6.09288C225.397 5.99742 225.186 5.86105 224.94 5.68378C224.749 5.53377 224.579 5.42468 224.429 5.3565C224.292 5.28831 224.136 5.25422 223.958 5.25422C223.467 5.25422 223.181 5.56105 223.099 6.1747H222.22Z" fill="white"></path><path d="M249.861 21.6591C248.539 21.6591 247.339 21.3523 246.261 20.7387C245.184 20.1114 244.332 19.2455 243.705 18.1409C243.091 17.0227 242.784 15.7613 242.784 14.3567C242.784 12.9521 243.091 11.6976 243.705 10.593C244.332 9.47477 245.184 8.60884 246.261 7.99519C247.339 7.36791 248.539 7.05426 249.861 7.05426C251.198 7.05426 252.405 7.36791 253.482 7.99519C254.559 8.60884 255.405 9.47477 256.018 10.593C256.632 11.6976 256.939 12.9521 256.939 14.3567C256.939 15.7613 256.632 17.0227 256.018 18.1409C255.405 19.2455 254.559 20.1114 253.482 20.7387C252.405 21.3523 251.198 21.6591 249.861 21.6591ZM249.861 20.4114C250.925 20.4114 251.88 20.1659 252.725 19.675C253.571 19.1841 254.239 18.4818 254.73 17.5681C255.221 16.6408 255.466 15.5704 255.466 14.3567C255.466 13.143 255.221 12.0794 254.73 11.1657C254.239 10.2521 253.571 9.54977 252.725 9.05885C251.88 8.56793 250.925 8.32247 249.861 8.32247C248.798 8.32247 247.843 8.56793 246.998 9.05885C246.152 9.54977 245.484 10.2521 244.993 11.1657C244.502 12.0794 244.257 13.143 244.257 14.3567C244.257 15.5704 244.502 16.6408 244.993 17.5681C245.484 18.4818 246.152 19.1841 246.998 19.675C247.843 20.1659 248.798 20.4114 249.861 20.4114Z" fill="white"></path></svg>